<?xml version="1.0" encoding="utf-8"?>
<!-- Generator: Adobe Illustrator 19.1.0, SVG Export Plug-In . SVG Version: 6.00 Build 0)  -->
<svg version="1.1" id="Capa_1" xmlns="http://www.w3.org/2000/svg" xmlns:xlink="http://www.w3.org/1999/xlink" x="0px" y="0px"
	 viewBox="-70 162.7 469.3 469.3" style="enable-background:new -70 162.7 469.3 469.3;" xml:space="preserve">
<style type="text/css">
	.st0{fill:#BF0000;}
</style>
<g>
	<path class="st0" d="M368.9,193.1c-40.4-40.5-106.1-40.5-146.5,0L-46.2,461.6c-2.1,2.1-3.4,4.8-3.8,7.7l-19.9,147.4
		c-0.6,4.2,0.9,8.4,3.8,11.3c2.5,2.5,6,4,9.5,4c0.6,0,1.2,0,1.8-0.1l88.8-12c7.4-1,12.6-7.8,11.6-15.2s-7.8-12.6-15.2-11.6
		l-71.2,9.6l13.9-102.8L81.3,608.1c2.5,2.5,6,4,9.5,4s7-1.4,9.5-4l268.6-268.5c19.6-19.6,30.4-45.6,30.4-73.3
		C399.3,238.6,388.5,212.6,368.9,193.1z M227.6,226.1l45.1,45.1L27.6,516.3l-45.1-45.1L227.6,226.1z M90.9,579.5l-44.1-44.1
		l245.1-245.1l44.1,44.1L90.9,579.5z M354.8,315.1L246.9,207.2c13.7-11.3,30.8-17.5,48.8-17.5c20.5,0,39.7,8,54.2,22.4
		s22.4,33.7,22.4,54.2C372.3,284.4,366.1,301.4,354.8,315.1z"/>
</g>
</svg>
