<?xml version="1.0" encoding="utf-8"?>
<!-- Generator: Adobe Illustrator 19.1.0, SVG Export Plug-In . SVG Version: 6.00 Build 0)  -->
<svg version="1.1" id="Capa_1" xmlns="http://www.w3.org/2000/svg" xmlns:xlink="http://www.w3.org/1999/xlink" x="0px" y="0px"
	 viewBox="-62 153.6 486.4 486.4" style="enable-background:new -62 153.6 486.4 486.4;" xml:space="preserve">
<style type="text/css">
	.st0{fill:#BF0000;}
</style>
<g>
	<g>
		<path class="st0" d="M384,223.6H282.8v-16.5c0-29.5-24-53.5-53.5-53.5h-96.2c-29.5,0-53.5,24-53.5,53.5v16.5H-21.6
			c-7.5,0-13.5,6-13.5,13.5s6,13.5,13.5,13.5H2.8v317.2C2.8,607.6,35.2,640,75,640h212.4c39.8,0,72.2-32.4,72.2-72.2V250.6H384
			c7.5,0,13.5-6,13.5-13.5S391.5,223.6,384,223.6z M106.6,207.1c0-14.6,11.9-26.5,26.5-26.5h96.2c14.6,0,26.5,11.9,26.5,26.5v16.5
			H106.6V207.1z M332.6,567.8c0,24.9-20.3,45.2-45.2,45.2H75c-24.9,0-45.2-20.3-45.2-45.2V250.6h302.9v317.2H332.6z"/>
		<path class="st0" d="M181.2,564.6c7.5,0,13.5-6,13.5-13.5V312.5c0-7.5-6-13.5-13.5-13.5s-13.5,6-13.5,13.5V551
			C167.7,558.5,173.7,564.6,181.2,564.6z"/>
		<path class="st0" d="M93.1,549.7c7.5,0,13.5-6,13.5-13.5V327.3c0-7.5-6-13.5-13.5-13.5s-13.5,6-13.5,13.5v208.9
			C79.6,543.7,85.7,549.7,93.1,549.7z"/>
		<path class="st0" d="M269.3,549.7c7.5,0,13.5-6,13.5-13.5V327.3c0-7.5-6-13.5-13.5-13.5s-13.5,6-13.5,13.5v208.9
			C255.8,543.7,261.8,549.7,269.3,549.7z"/>
	</g>
</g>
</svg>
