<?xml version="1.0" encoding="utf-8"?>
<!-- Generator: Adobe Illustrator 19.1.0, SVG Export Plug-In . SVG Version: 6.00 Build 0)  -->
<svg version="1.1" id="Capa_1" xmlns="http://www.w3.org/2000/svg" xmlns:xlink="http://www.w3.org/1999/xlink" x="0px" y="0px"
	 viewBox="-49 141 512 512" style="enable-background:new -49 141 512 512;" xml:space="preserve">
<style type="text/css">
	.st0{fill:#BF0000;}
</style>
<g>
	<g id="tick">
		<g>
			<path class="st0" d="M316.3,305.6L167,454.9l-69.3-69.3c-6.1-6.1-16-6.1-22.1,0c-6.1,6.1-6.1,16,0,22.1l78.5,78.5
				c0.5,0.8,0.8,1.6,1.5,2.3c3.2,3.2,7.3,4.6,11.4,4.5c4.1,0.1,8.3-1.3,11.4-4.5c0.7-0.7,1-1.5,1.5-2.3l158.5-158.5
				c6.1-6.1,6.1-16,0-22.1C332.3,299.5,322.4,299.5,316.3,305.6z M207,141C65.6,141-49,255.6-49,397S65.6,653,207,653
				c141.4,0,256-114.6,256-256S348.4,141,207,141z M207,621C83.3,621-17,520.7-17,397S83.3,173,207,173s224,100.3,224,224
				S330.7,621,207,621z"/>
		</g>
	</g>
</g>
</svg>
