<?xml version="1.0" encoding="utf-8"?>
<!-- Generator: Adobe Illustrator 19.1.0, SVG Export Plug-In . SVG Version: 6.00 Build 0)  -->
<svg version="1.1" id="Layer_1" xmlns="http://www.w3.org/2000/svg" xmlns:xlink="http://www.w3.org/1999/xlink" x="0px" y="0px"
	 viewBox="-99 101 800 800" style="enable-background:new -99 101 800 800;" xml:space="preserve">
<style type="text/css">
	.st0{display:none;fill:#333333;enable-background:new    ;}
	.st1{font-family:'OpenSans-Extrabold';}
	.st2{font-size:138.8019px;}
	.st3{display:none;enable-background:new    ;}
	.st4{display:inline;fill:#333333;}
	.st5{enable-background:new    ;}
	.st6{fill:#333333;}
	.st7{opacity:0.6;}
	.st8{fill:#BF0000;}
	.st9{fill:#FFFFFF;}
	.st10{display:none;}
	.st11{display:inline;}
	.st12{fill:#DDDDDC;}
	.st13{fill:#666666;}
	.st14{fill:#AAAAAA;}
	.st15{display:none;fill:#7383BF;}
	.st16{display:none;fill:#556080;}
</style>
<text transform="matrix(0.9757 0 0 1 -68.52 865.2798)" class="st0 st1 st2">APLICACIÓ</text>
<g id="smartview" class="st3">
	<path class="st4" d="M-9.7,835.2c0,6.1-1.5,11.6-4.6,16.4c-3,4.8-7.4,8.5-13.2,11.1c-5.7,2.6-12.5,4-20.2,4
		c-6.4,0-11.8-0.5-16.2-1.4s-8.9-2.5-13.6-4.8v-23.9c5,2.6,10.2,4.7,15.5,6.1c5.4,1.5,10.3,2.2,14.8,2.2c3.9,0,6.7-0.7,8.5-2.1
		c1.8-1.4,2.7-3.2,2.7-5.3c0-1.4-0.4-2.5-1.1-3.6c-0.7-1-1.9-2-3.5-3.1c-1.6-1-5.9-3.2-12.9-6.4c-6.3-2.9-11-5.8-14.2-8.5
		c-3.2-2.8-5.5-5.9-7-9.5c-1.5-3.6-2.3-7.8-2.3-12.7c0-9.1,3.2-16.2,9.7-21.3s15.4-7.7,26.7-7.7c10,0,20.2,2.4,30.6,7.1l-8,20.7
		c-9-4.2-16.8-6.4-23.4-6.4c-3.4,0-5.9,0.6-7.4,1.8c-1.5,1.2-2.3,2.7-2.3,4.5c0,1.9,1,3.7,2.9,5.2c2,1.5,7.3,4.3,16,8.4
		c8.3,3.8,14.1,8,17.4,12.4C-11.4,823-9.7,828.5-9.7,835.2z"/>
	<path class="st4" d="M95.7,865.3v-41.7c0-5.2-0.7-9.1-2.1-11.7s-3.6-3.9-6.6-3.9c-4,0-6.9,1.7-8.7,5.2c-1.9,3.5-2.8,8.9-2.8,16.3
		v35.8H49.6v-41.7c0-5.2-0.7-9.1-2-11.7c-1.3-2.6-3.5-3.9-6.4-3.9c-4.1,0-7,1.9-8.9,5.6s-2.8,9.8-2.8,18.2v33.6H3.7v-76.8h19.5
		l3.2,9.5H28c2-3.5,4.9-6.2,8.6-8.1c3.8-1.9,8.1-2.8,12.9-2.8c10.8,0,18.4,3.4,22.7,10.1h2.1c2.1-3.2,5.1-5.6,8.8-7.4
		c3.8-1.8,7.9-2.7,12.5-2.7c8.9,0,15.4,2.3,19.6,7c4.2,4.7,6.3,11.7,6.3,21.2v49.9H95.7z"/>
	<path class="st4" d="M188,865.3l-5-10.2h-0.5c-3.5,4.4-7,7.5-10.6,9.1c-3.6,1.6-8.3,2.4-14,2.4c-7.1,0-12.6-2.2-16.7-6.5
		c-4.1-4.3-6.1-10.4-6.1-18.3c0-8.2,2.8-14.3,8.3-18.3s13.6-6.2,24.1-6.7l12.5-0.4v-1.1c0-6.3-3-9.5-9.1-9.5
		c-5.5,0-12.4,1.9-20.8,5.7l-7.5-17.5c8.7-4.6,19.7-6.9,33.1-6.9c9.6,0,17,2.4,22.3,7.3c5.3,4.9,7.9,11.7,7.9,20.5v50.4H188z
		 M168.8,847.9c3.1,0,5.8-1,8-3.1c2.2-2,3.3-4.7,3.3-7.9v-6l-6,0.3c-8.5,0.3-12.8,3.5-12.8,9.6C161.5,845.6,163.9,847.9,168.8,847.9
		z"/>
	<path class="st4" d="M268.7,787.1c2.2,0,4.4,0.2,6.4,0.5l1.5,0.3l-2.3,25c-2.1-0.5-5-0.8-8.8-0.8c-5.6,0-9.7,1.3-12.3,4
		c-2.6,2.6-3.8,6.5-3.8,11.4v37.8h-25.9v-76.8h19.2l4,12.3h1.3c2.2-4.1,5.2-7.4,9-9.9C260.9,788.4,264.8,787.1,268.7,787.1z"/>
	<path class="st4" d="M323.7,845.7c3.5,0,7.6-0.9,12.5-2.6v19.3c-3.5,1.5-6.8,2.6-10,3.3s-6.8,1-11.1,1c-8.7,0-14.9-2.2-18.8-6.5
		c-3.8-4.4-5.8-11.1-5.8-20.1v-31.7h-9.1v-10.8l11.5-8.3l6.7-16.1h16.9v15.4h18.4v19.9h-18.4v29.9
		C316.7,843.2,319.1,845.7,323.7,845.7z"/>
	<path class="st4" d="M405.2,766.2h29.2l-31.7,99.1H372l-31.5-99.1h29.4l13.2,50.2c2.7,11.2,4.2,18.9,4.5,23.3
		c0.3-3.2,0.9-7.1,1.9-11.9s1.7-8.5,2.4-11.2L405.2,766.2z"/>
	<path class="st4" d="M442.8,769.4c0-4,1.1-6.9,3.2-8.9c2.2-1.9,5.6-2.9,10.4-2.9s8.3,1,10.5,3c2.2,2,3.3,4.9,3.3,8.8
		c0,7.8-4.6,11.7-13.8,11.7C447.3,781,442.8,777.2,442.8,769.4z M469.3,865.3h-25.9v-76.8h25.9V865.3z"/>
	<path class="st4" d="M523.5,866.6c-12.5,0-22.2-3.4-29.1-10.2c-6.9-6.8-10.3-16.5-10.3-29c0-13,3.2-22.9,9.6-29.9
		c6.4-6.9,15.5-10.4,27.4-10.4c11.3,0,20,3,26.2,9s9.2,14.7,9.2,26.1V834h-46.2c0.2,4.3,1.7,7.7,4.6,10.1c2.9,2.4,6.8,3.7,11.8,3.7
		c4.5,0,8.7-0.4,12.5-1.3c3.8-0.9,7.9-2.4,12.4-4.5v19c-4.1,2.1-8.2,3.6-12.6,4.4C534.7,866.2,529.5,866.6,523.5,866.6z M522,805.2
		c-3,0-5.6,1-7.6,2.9c-2,2-3.3,5.1-3.6,9.3H533c-0.1-3.7-1.1-6.7-3.1-8.9C527.9,806.3,525.3,805.2,522,805.2z"/>
	<path class="st4" d="M635.5,865.3l-8.5-36.6l-2-11l-1.3-8.9h-0.4c-2.2,12.7-3.6,20.6-4.4,23.9l-7.6,32.6h-27.2l-20.4-76.8h25.5
		l6.1,29.5c1.9,10.1,3.1,18.5,3.4,25.2h0.4c0.1-4.2,1.3-12.1,3.6-23.7l6.9-31h28.6l6.3,31.4c2,10,3.3,17.8,3.8,23.3h0.4
		c0.3-3.4,0.7-7.7,1.3-12.8c0.6-5.1,1.3-9.2,2.1-12.4l6.6-29.5h24.9l-20.6,76.8H635.5z"/>
</g>
<g id="app" class="st3">
	<path class="st4" d="M1.2,865.3l-4.8-18.6h-31.4l-4.9,18.6h-28.7l31.5-99.5h34.8l31.9,99.5H1.2z M-8.9,824.8l-4.2-16.3
		c-1-3.6-2.1-8.3-3.5-14c-1.4-5.7-2.3-9.8-2.7-12.3c-0.4,2.3-1.2,6.1-2.3,11.4c-1.2,5.3-3.8,15.7-7.8,31.2H-8.9z"/>
	<path class="st4" d="M110.4,797.7c0,11.1-3.2,19.6-9.6,25.7c-6.4,6-15.4,9-27.1,9h-7.3v32.9H40.3v-99.1h33.5
		c12.2,0,21.4,2.7,27.5,8.2C107.4,779.9,110.4,787.6,110.4,797.7z M66.4,810.6h4.8c3.9,0,7-1.1,9.4-3.4c2.3-2.3,3.5-5.4,3.5-9.4
		c0-6.7-3.6-10-10.8-10h-6.7V810.6z"/>
	<path class="st4" d="M125.8,865.3v-99.1h26.1v77.5h37.2v21.6H125.8z"/>
	<path class="st4" d="M204.7,865.3v-99.1h26.3v99.1H204.7z"/>
	<path class="st4" d="M294.9,786.7c-6.2,0-11.1,2.6-14.5,7.8c-3.5,5.2-5.2,12.4-5.2,21.6c0,19.1,7.1,28.6,21.2,28.6
		c4.3,0,8.4-0.6,12.4-1.8s8-2.7,12.1-4.4v22.6c-8.1,3.7-17.2,5.5-27.4,5.5c-14.6,0-25.8-4.3-33.6-13c-7.8-8.7-11.7-21.2-11.7-37.6
		c0-10.3,1.9-19.3,5.7-27c3.8-7.8,9.2-13.7,16.3-17.9c7.1-4.2,15.4-6.3,25-6.3c10.4,0,20.4,2.3,30,7l-8,21.1
		c-3.6-1.7-7.1-3.2-10.7-4.3C302.8,787.3,299,786.7,294.9,786.7z"/>
	<path class="st4" d="M399,865.3l-4.8-18.6h-31.4l-4.9,18.6h-28.7l31.5-99.5h34.8l31.9,99.5H399z M388.8,824.8l-4.2-16.3
		c-1-3.6-2.1-8.3-3.5-14c-1.4-5.7-2.3-9.8-2.7-12.3c-0.4,2.3-1.2,6.1-2.3,11.4c-1.2,5.3-3.8,15.7-7.8,31.2H388.8z"/>
	<path class="st4" d="M481.1,786.7c-6.2,0-11.1,2.6-14.5,7.8c-3.5,5.2-5.2,12.4-5.2,21.6c0,19.1,7.1,28.6,21.2,28.6
		c4.3,0,8.4-0.6,12.4-1.8s8-2.7,12.1-4.4v22.6c-8.1,3.7-17.2,5.5-27.4,5.5c-14.6,0-25.8-4.3-33.6-13c-7.8-8.7-11.7-21.2-11.7-37.6
		c0-10.3,1.9-19.3,5.7-27c3.8-7.8,9.2-13.7,16.3-17.9c7.1-4.2,15.4-6.3,25-6.3c10.4,0,20.4,2.3,30,7l-8,21.1
		c-3.6-1.7-7.1-3.2-10.7-4.3C489,787.3,485.2,786.7,481.1,786.7z"/>
	<path class="st4" d="M525.9,865.3v-99.1h26.3v99.1H525.9z"/>
	<path class="st4" d="M663.5,815.6c0,16.7-4,29.3-12,38c-8,8.7-19.7,13-35,13c-15.2,0-26.8-4.4-34.9-13.1
		c-8.1-8.7-12.1-21.4-12.1-38.1c0-16.5,4-29.1,12.1-37.8c8-8.7,19.7-13,35.1-13c15.4,0,27,4.3,35,12.9
		C659.5,786.2,663.5,798.9,663.5,815.6z M597,815.6c0,19.2,6.5,28.7,19.5,28.7c6.6,0,11.5-2.3,14.7-7c3.2-4.7,4.8-11.9,4.8-21.8
		c0-9.9-1.6-17.2-4.9-21.9c-3.2-4.7-8.1-7.1-14.5-7.1C603.5,786.6,597,796.3,597,815.6z M601.2,758.3v-2
		c6.8-7.5,11.1-12.3,12.9-14.4c1.8-2.2,3.3-4.1,4.5-5.8h28.3v1.4c-3.5,2.9-8.4,6.6-14.5,11c-6.2,4.5-10.8,7.7-14,9.8H601.2z"/>
</g>
<g id="url" class="st3">
	<path class="st4" d="M257.2,766.2v59.6c0,13-3.6,23-10.7,30.1c-7.2,7.1-17.5,10.7-31,10.7c-13.2,0-23.3-3.5-30.4-10.4
		c-7.1-6.9-10.6-16.9-10.6-29.8v-60.3h26.3v58.2c0,7,1.3,12.1,3.8,15.2c2.6,3.2,6.3,4.7,11.3,4.7c5.3,0,9.2-1.6,11.6-4.7
		c2.4-3.1,3.6-8.3,3.6-15.4v-58H257.2z"/>
	<path class="st4" d="M303.6,829.2v36.1h-26.1v-99.1h31.7c26.3,0,39.4,9.8,39.4,29.3c0,11.5-5.5,20.4-16.4,26.6l28.2,43.2h-29.6
		l-20.5-36.1H303.6z M303.6,809.1h4.9c9.1,0,13.7-4.1,13.7-12.4c0-6.8-4.5-10.2-13.4-10.2h-5.2V809.1z"/>
	<path class="st4" d="M369.1,865.3v-99.1h26.1v77.5h37.2v21.6H369.1z"/>
</g>
<g id="equip" class="st5">
	<path class="st6" d="M160.1,865.3h-57.4v-99.1h57.4v21.5h-31.3v15.6h29v21.5h-29v18.7h31.3V865.3z"/>
	<path class="st6" d="M267.5,815.6c0,22.5-7,37.6-20.9,45.4l23.6,27.9h-32.5l-17.1-22l-0.1-0.1v-0.1l-0.1-0.1
		c-15.2,0-26.8-4.4-34.9-13.1c-8.1-8.7-12.1-21.4-12.1-38.1c0-16.5,4-29.1,12.1-37.8c8-8.7,19.7-13,35.1-13c15.4,0,27,4.3,35,12.9
		C263.5,786.2,267.5,798.9,267.5,815.6z M201,815.6c0,19.2,6.5,28.7,19.5,28.7c6.6,0,11.5-2.3,14.7-7c3.2-4.7,4.8-11.9,4.8-21.8
		c0-9.9-1.6-17.2-4.9-21.9c-3.2-4.7-8.1-7.1-14.5-7.1C207.5,786.6,201,796.3,201,815.6z"/>
	<path class="st6" d="M367.2,766.2v59.6c0,13-3.6,23-10.7,30.1c-7.2,7.1-17.5,10.7-31,10.7c-13.2,0-23.3-3.5-30.4-10.4
		c-7.1-6.9-10.6-16.9-10.6-29.8v-60.3h26.3v58.2c0,7,1.3,12.1,3.8,15.2c2.6,3.2,6.3,4.7,11.3,4.7c5.3,0,9.2-1.6,11.6-4.7
		c2.4-3.1,3.6-8.3,3.6-15.4v-58H367.2z"/>
	<path class="st6" d="M387.5,865.3v-99.1h26.3v99.1H387.5z"/>
	<path class="st6" d="M504.8,797.7c0,11.1-3.2,19.6-9.6,25.7s-15.4,9-27.1,9h-7.3v32.9h-26.1v-99.1h33.5c12.2,0,21.4,2.7,27.5,8.2
		C501.7,779.9,504.8,787.6,504.8,797.7z M460.7,810.6h4.8c3.9,0,7-1.1,9.4-3.4s3.5-5.4,3.5-9.4c0-6.7-3.6-10-10.8-10h-6.7V810.6z"/>
</g>
<g class="st7">
	<circle class="st8" cx="301" cy="421" r="277"/>
	<circle class="st9" cx="301" cy="421" r="207.8"/>
	<circle class="st9" cx="301" cy="421" r="207.8"/>
	
		<rect x="66.5" y="386.4" transform="matrix(0.7071 -0.7071 0.7071 0.7071 -209.5311 336.1472)" class="st8" width="469.1" height="69.2"/>
</g>
<g class="st10">
	<g class="st11">
		<path class="st9" d="M618.4,404.3c-1.3-1.7-33.2-41.6-87.8-81.7c-73-53.6-152.3-81.9-229.6-81.9c-77.2,0-156.6,28.3-229.6,81.9
			c-54.6,40.1-86.4,80.1-87.8,81.7l-11.3,14.3l11.3,14.3c1.3,1.7,33.2,41.6,87.8,81.7c73,53.6,152.3,81.9,229.6,81.9
			c77.2,0,156.6-28.3,229.5-81.9c54.6-40.1,86.4-80.1,87.8-81.7l11.3-14.3L618.4,404.3z"/>
	</g>
	<g class="st11">
		<path class="st6" d="M618.4,404.3c-1.3-1.7-33.2-41.6-87.8-81.7c-73-53.6-152.3-81.9-229.6-81.9c-77.2,0-156.6,28.3-229.6,81.9
			c-54.6,40.1-86.4,80.1-87.8,81.7l-11.3,14.3l11.3,14.3c1.3,1.7,33.2,41.6,87.8,81.7c73,53.6,152.3,81.9,229.6,81.9
			c77.2,0,156.6-28.3,229.5-81.9c54.6-40.1,86.4-80.1,87.8-81.7l11.3-14.3L618.4,404.3z M301.1,543.2
			c-68.7,0-124.7-55.9-124.7-124.7c0-10.8,1.4-21.2,4-31.2l-28.5-4.8c-2.8,11.5-4.3,23.6-4.3,36c0,44.4,19,84.4,49.2,112.5
			c-38.9-14.4-72-34.6-97-52.8c-31-22.6-54.2-45.5-67.4-59.7c13.2-14.2,36.4-37.1,67.4-59.7c25-18.3,58.1-38.4,97-52.8l19.1,21.5
			c22.3-20.9,52.2-33.7,85.1-33.7c68.8,0.1,124.7,56.1,124.7,124.8S369.8,543.2,301.1,543.2z M502.3,478.3
			c-25,18.3-58.1,38.4-97,52.8c30.2-28,49.2-68.1,49.2-112.5s-18.9-84.5-49.2-112.5c38.9,14.4,72,34.6,97,52.8
			c31,22.6,54.2,45.5,67.4,59.7C556.5,432.8,533.3,455.7,502.3,478.3z"/>
		<path class="st6" d="M221.8,394.4c-2.3,7.7-3.6,15.8-3.6,24.2c0,45.8,37.1,82.9,82.9,82.9s82.9-37.1,82.9-82.9
			s-37.1-82.9-82.9-82.9c-22.3,0-42.5,8.8-57.5,23.2l40.9,46.1L221.8,394.4z"/>
	</g>
</g>
<g id="icons" class="st10">
	<g class="st11">
		<path class="st6" d="M260.4,250.9c-5.5,2.5-11.4,4.1-17.7,4.8c6.3-3.8,11.2-9.8,13.5-17c-5.9,3.5-12.5,6.1-19.5,7.5
			c-5.6-6-13.6-9.7-22.5-9.7c-17,0-30.8,13.8-30.8,30.8c0,2.4,0.3,4.8,0.8,7c-25.6-1.3-48.3-13.5-63.4-32.2
			c-2.6,4.5-4.2,9.8-4.2,15.5c0,10.7,5.4,20.1,13.7,25.6c-5-0.2-9.8-1.5-13.9-3.9c0,0.1,0,0.3,0,0.4c0,14.9,10.6,27.3,24.7,30.2
			c-2.6,0.7-5.3,1.1-8.1,1.1c-2,0-3.9-0.2-5.8-0.6c3.9,12.2,15.3,21.1,28.8,21.4c-10.5,8.2-23.8,13.2-38.2,13.2
			c-2.5,0-4.9-0.1-7.3-0.4c13.6,8.7,29.8,13.8,47.2,13.8c56.6,0,87.6-46.9,87.6-87.6c0-1.3,0-2.7-0.1-4
			C251.1,262.5,256.3,257.1,260.4,250.9z"/>
	</g>
	<g class="st11">
		<g>
			<g>
				<g>
					<path class="st6" d="M377,506.9h-95.6c-15,0-27.2,11.9-27.2,26.5v93.1c0,14.6,12.2,26.5,27.2,26.5H377
						c15,0,27.2-11.9,27.2-26.5v-93.1C404.2,518.8,392,506.9,377,506.9z M359.4,527.4c0-3.3,2.7-5.8,6.1-5.8c6,0,11.9,0,17.9,0
						c3.1,0,5.5,2,6,4.8c0.1,0.3,0.1,0.6,0.1,0.9c0,5.7,0,11.4,0,17.1c0,2.9-2,5.2-5,5.7c-0.4,0.1-0.8,0.1-1.2,0.1c-3,0-6,0-8.9,0
						c-3,0-6,0-8.9,0c-2.7,0-5.6-1.8-6-5c0-0.3,0-0.5,0-0.8C359.4,538.7,359.4,533.1,359.4,527.4z M329.2,550.2
						c16.6,0,30.1,12.8,30.1,28.6c0,15.8-13.5,28.6-30.1,28.6c-16.7,0-30.1-12.8-30.1-28.6C299.1,563.3,312.3,550.2,329.2,550.2z
						 M389.5,568.2c0,17,0,33.9,0,50.9c0,3.8,0,7.5,0,11.3c0,2.8-1.9,5.1-4.8,5.6c-0.6,0.1-1.1,0.1-1.7,0.1c-17.3,0-34.6,0-51.9,0
						c-18.5,0-37.1,0-55.6,0c-0.8,0-1.6-0.1-2.4-0.3c-2.3-0.7-4-2.7-4.2-5c0-0.3,0-0.6,0-0.9c0-20.6,0-41.2,0-61.8
						c0-0.2,0-0.5,0-0.8c4.6,0,9.1,0,13.6,0c-3.1,11.9-1.6,23.2,4.7,33.9c4.5,7.6,10.8,13.5,18.8,17.7c7.9,4.2,16.5,6.1,25.5,5.6
						c15.1-0.8,27.3-7.1,36.5-18.5c8.8-11.7,11.4-24.6,7.9-38.6c4.5,0,9,0,13.6,0C389.5,567.7,389.5,567.9,389.5,568.2z"/>
				</g>
			</g>
		</g>
	</g>
	<g class="st11">
		<path class="st6" d="M392.4,386c0-11.8-9.7-21.4-21.7-21.4c-16.2-0.7-32.8-1-49.7-1c-0.9,0-1.8,0-2.6,0c-0.9,0-1.8,0-2.6,0
			c-16.9,0-33.5,0.3-49.7,1c-12,0-21.7,9.6-21.7,21.4c-0.7,9.4-1,18.7-1,28.1c0,9.4,0.3,18.7,1,28.1c0,11.8,9.7,21.4,21.7,21.4
			c17.1,0.8,34.5,1.1,52.3,1c17.8,0,35.3-0.3,52.3-1c12,0,21.7-9.6,21.7-21.4c0.7-9.4,1-18.7,1-28.1
			C393.5,404.7,393.1,395.3,392.4,386z M341.4,418.6l-41.3,23.9c-4.3,2.5-7.9,0.5-7.9-4.5l-0.1-47.7c0-5,3.5-7,7.9-4.6l41.3,23.8
			C345.8,411.9,345.8,416.1,341.4,418.6z"/>
	</g>
	<path class="st4" d="M355.4,315.5h-29.3v-93.6h29.3V315.5z M340.1,210.2h-0.2c-10.6,0-17.4-7.2-17.4-16.2c0-9.2,7.1-16.2,17.9-16.2
		c10.8,0,17.4,7,17.6,16.2C357.9,203,351.1,210.2,340.1,210.2z M472.4,315.5h-33.1V267c0-12.7-5.2-21.3-16.6-21.3
		c-8.7,0-13.6,5.8-15.8,11.5c-0.8,2-0.7,4.8-0.7,7.6v50.6h-32.8c0,0,0.4-85.8,0-93.6h32.8v14.7c1.9-6.4,12.4-15.6,29.2-15.6
		c20.8,0,37.1,13.5,37.1,42.4V315.5z"/>
	<path id="Facebook_3_" class="st4" d="M118.3,462.1c0,3.9,0,21.5,0,21.5h-15.5v26.3h15.5v72.1h31.8v-72.1h21.4c0,0,2-12.6,3-26.4
		c-2.8,0-24.2,0-24.2,0s0-15.3,0-17.9c0-2.7,3.5-6.3,6.9-6.3c3.4,0,10.7,0,17.3,0c0-3.6,0-15.9,0-27.3c-8.9,0-19.1,0-23.6,0
		C117.5,431.9,118.3,458.2,118.3,462.1z"/>
	<g class="st11">
		<path class="st6" d="M497.6,389.5c-40.9,0-61.6,29.4-61.6,53.8c0,14.8,5.6,28,17.6,32.9c2,0.8,3.7,0,4.3-2.2
			c0.4-1.5,1.3-5.3,1.8-6.9c0.6-2.2,0.4-2.9-1.2-4.8c-3.5-4.1-5.7-9.4-5.7-16.9c0-21.8,16.3-41.3,42.4-41.3
			c23.1,0,35.8,14.1,35.8,33c0,24.8-11,45.8-27.3,45.8c-9,0-15.8-7.4-13.6-16.6c2.6-10.9,7.6-22.7,7.6-30.6
			c0-7.1-3.8-12.9-11.6-12.9c-9.2,0-16.6,9.5-16.6,22.3c0,8.1,2.8,13.6,2.8,13.6s-9.4,40-11.1,46.9c-3.3,13.9-0.5,31-0.3,32.7
			c0.1,1,1.4,1.3,2,0.5c0.9-1.1,11.8-14.7,15.6-28.2c1-3.8,6-23.7,6-23.7c3,5.7,11.7,10.7,21.1,10.7c27.7,0,46.5-25.3,46.5-59.1
			C552.2,413.3,530.5,389.5,497.6,389.5z"/>
	</g>
</g>
<g>
	<g>
		<g>
			<path class="st12" d="M260.9,527.8c0,0,0,0.8,1.2,1.5l78.1-0.1c0.8-0.7,1-1.5,1-1.5L260.9,527.8z"/>
		</g>
		<path class="st13" d="M330.8,520c-1.7-2.5-3.1-16.4-3.5-26.9h-52.8c-0.4,10.6-1.8,24.4-3.5,26.9c-2.2,3.4-11.6,6.5-10.1,8
			c0.3,0.6,21,0.2,40.4,0.2c20.3,0,39.2,0.4,39.6-0.2C342.4,526.5,333.1,523.4,330.8,520z"/>
	</g>
	<path class="st6" d="M424.6,493.1H177.4c-4.3,0-7.8-3.5-7.8-7.8V320.5c0-4.3,3.5-7.8,7.8-7.8h247.3c4.3,0,7.8,3.5,7.8,7.8v164.8
		C432.5,489.6,429,493.1,424.6,493.1z"/>
	<path class="st14" d="M169.5,469.8v16.6c0,4,3.2,7.2,7.2,7.2h248.6c4,0,7.2-3.2,7.2-7.2v-16.6H169.5z"/>
</g>
<path class="st15" d="M1099.8,558.3l-62.9-31.5c-8.1-4.1-13.3-12.4-13.3-21.5v-24.7c1.8-2,3.8-4.6,6-7.7
	c8.6-12.1,15.1-25.4,19.6-39.4c8.1-2.5,14-9.9,14-18.8v-26.3c0-5.8-2.6-11-6.6-14.6v-38.1c0,0,7.8-59.3-72.4-59.3
	c-80.3,0-72.4,59.3-72.4,59.3v38.1c-4,3.6-6.6,8.8-6.6,14.6v26.3c0,6.9,3.6,13,9.1,16.6c6.6,28.7,23.8,49.3,23.8,49.3v24.1
	c0,8.8-4.8,16.9-12.5,21.1l-58.8,32.1c-17,9.3-27.5,27-27.5,46.4v21.3H1129v-20C1129,585.5,1117.7,567.2,1099.8,558.3z"/>
<path class="st16" d="M866.7,557.9l39.2-21.4c-0.2-0.2,0-0.3,0.4-0.2l19.2-10.5c7.7-4.2,12.5-12.3,12.5-21.1v-24.1
	c0,0-7-8.4-13.8-21.9l0,0c0,0,0,0,0,0c-0.9-1.8-1.8-3.6-2.6-5.6c-0.1-0.3-0.2-0.5-0.4-0.8c-0.9-2-1.7-4.1-2.5-6.2
	c-0.1-0.1-0.1-0.3-0.2-0.4c-0.7-1.9-1.4-3.9-2-5.9c-0.2-0.6-0.3-1.1-0.5-1.7c-0.7-2.2-1.3-4.5-1.8-6.8c-5.5-3.5-9.1-9.6-9.1-16.6
	v-26.3c0-5.8,2.6-11,6.6-14.6v-37.2c-9.3-7.2-23.7-14.1-46.1-14.1c-63,0-65.9,52.7-65.9,52.7v32.9c-3.5,3.1-6.6,7.6-6.6,12.6v22.8
	c0,6,3.2,11.3,7.9,14.3c5.7,24.8,24.8,42.6,24.8,42.6v20.8c0,7.6-4.1,14.6-10.8,18.2l-44.2,27.7c-14.7,8-23.8,23.4-23.8,40.1v18.4
	h92.2v-21.3C839.2,584.9,849.8,567.1,866.7,557.9z"/>
</svg>
