<?xml version="1.0" encoding="utf-8"?>
<!-- Generator: Adobe Illustrator 19.1.0, SVG Export Plug-In . SVG Version: 6.00 Build 0)  -->
<svg version="1.1" id="Layer_1" xmlns="http://www.w3.org/2000/svg" xmlns:xlink="http://www.w3.org/1999/xlink" x="0px" y="0px"
	 viewBox="-99 101 800 800" style="enable-background:new -99 101 800 800;" xml:space="preserve">
<style type="text/css">
	.st0{display:none;fill:#333333;enable-background:new    ;}
	.st1{font-family:'OpenSans-Extrabold';}
	.st2{font-size:138.8019px;}
	.st3{enable-background:new    ;}
	.st4{fill:#333333;}
	.st5{fill:#FFFFFF;}
	.st6{display:none;}
	.st7{display:inline;}
</style>
<text transform="matrix(0.9757 0 0 1 -68.52 865.2798)" class="st0 st1 st2">APLICACIÓ</text>
<text transform="matrix(0.9757 0 0 1 -68.52 865.2798)" class="st0 st1 st2">APLICACIÓ</text>
<text transform="matrix(0.9757 0 0 1 -68.52 865.2798)" class="st0 st1 st2">APLICACIÓ</text>
<g class="st3">
	<path class="st4" d="M160.1,865.3h-57.4v-99.1h57.4v21.5h-31.3v15.6h29v21.5h-29v18.7h31.3V865.3z"/>
	<path class="st4" d="M267.5,815.6c0,22.5-7,37.6-20.9,45.4l23.6,27.9h-32.5l-17.1-22l-0.1-0.1v-0.1l-0.1-0.1
		c-15.2,0-26.8-4.4-34.9-13.1c-8.1-8.7-12.1-21.4-12.1-38.1c0-16.5,4-29.1,12.1-37.8c8-8.7,19.7-13,35.1-13c15.4,0,27,4.3,35,12.9
		C263.5,786.2,267.5,798.9,267.5,815.6z M201,815.6c0,19.2,6.5,28.7,19.5,28.7c6.6,0,11.5-2.3,14.7-7c3.2-4.7,4.8-11.9,4.8-21.8
		c0-9.9-1.6-17.2-4.9-21.9c-3.2-4.7-8.1-7.1-14.5-7.1C207.5,786.6,201,796.3,201,815.6z"/>
	<path class="st4" d="M367.2,766.2v59.6c0,13-3.6,23-10.7,30.1c-7.2,7.1-17.5,10.7-31,10.7c-13.2,0-23.3-3.5-30.4-10.4
		c-7.1-6.9-10.6-16.9-10.6-29.8v-60.3h26.3v58.2c0,7,1.3,12.1,3.8,15.2c2.6,3.2,6.3,4.7,11.3,4.7c5.3,0,9.2-1.6,11.6-4.7
		c2.4-3.1,3.6-8.3,3.6-15.4v-58H367.2z"/>
	<path class="st4" d="M387.5,865.3v-99.1h26.3v99.1H387.5z"/>
	<path class="st4" d="M504.8,797.7c0,11.1-3.2,19.6-9.6,25.7s-15.4,9-27.1,9h-7.3v32.9h-26.1v-99.1h33.5c12.2,0,21.4,2.7,27.5,8.2
		C501.7,779.9,504.8,787.6,504.8,797.7z M460.7,810.6h4.8c3.9,0,7-1.1,9.4-3.4s3.5-5.4,3.5-9.4c0-6.7-3.6-10-10.8-10h-6.7V810.6z"/>
</g>
<g>
	<circle class="st4" cx="301" cy="421" r="277"/>
	<circle class="st5" cx="301" cy="421" r="207.8"/>
	
		<rect x="66.5" y="386.4" transform="matrix(0.7071 -0.7071 0.7071 0.7071 -209.5311 336.1472)" class="st4" width="469.1" height="69.2"/>
</g>
<g class="st6">
	<g class="st7">
		<path class="st5" d="M618.4,404.3c-1.3-1.7-33.2-41.6-87.8-81.7c-73-53.6-152.3-81.9-229.6-81.9c-77.2,0-156.6,28.3-229.6,81.9
			c-54.6,40.1-86.4,80.1-87.8,81.7l-11.3,14.3l11.3,14.3c1.3,1.7,33.2,41.6,87.8,81.7c73,53.6,152.3,81.9,229.6,81.9
			c77.2,0,156.6-28.3,229.5-81.9c54.6-40.1,86.4-80.1,87.8-81.7l11.3-14.3L618.4,404.3z"/>
	</g>
	<g class="st7">
		<path class="st4" d="M618.4,404.3c-1.3-1.7-33.2-41.6-87.8-81.7c-73-53.6-152.3-81.9-229.6-81.9c-77.2,0-156.6,28.3-229.6,81.9
			c-54.6,40.1-86.4,80.1-87.8,81.7l-11.3,14.3l11.3,14.3c1.3,1.7,33.2,41.6,87.8,81.7c73,53.6,152.3,81.9,229.6,81.9
			c77.2,0,156.6-28.3,229.5-81.9c54.6-40.1,86.4-80.1,87.8-81.7l11.3-14.3L618.4,404.3z M301.1,543.2
			c-68.7,0-124.7-55.9-124.7-124.7c0-10.8,1.4-21.2,4-31.2l-28.5-4.8c-2.8,11.5-4.3,23.6-4.3,36c0,44.4,19,84.4,49.2,112.5
			c-38.9-14.4-72-34.6-97-52.8c-31-22.6-54.2-45.5-67.4-59.7c13.2-14.2,36.4-37.1,67.4-59.7c25-18.3,58.1-38.4,97-52.8l19.1,21.5
			c22.3-20.9,52.2-33.7,85.1-33.7c68.8,0.1,124.7,56.1,124.7,124.8S369.8,543.2,301.1,543.2z M502.3,478.3
			c-25,18.3-58.1,38.4-97,52.8c30.2-28,49.2-68.1,49.2-112.5s-18.9-84.5-49.2-112.5c38.9,14.4,72,34.6,97,52.8
			c31,22.6,54.2,45.5,67.4,59.7C556.5,432.8,533.3,455.7,502.3,478.3z"/>
		<path class="st4" d="M221.8,394.4c-2.3,7.7-3.6,15.8-3.6,24.2c0,45.8,37.1,82.9,82.9,82.9s82.9-37.1,82.9-82.9
			s-37.1-82.9-82.9-82.9c-22.3,0-42.5,8.8-57.5,23.2l40.9,46.1L221.8,394.4z"/>
	</g>
</g>
</svg>
