<?xml version="1.0" encoding="utf-8"?>
<!-- Generator: Adobe Illustrator 19.1.0, SVG Export Plug-In . SVG Version: 6.00 Build 0)  -->
<svg version="1.1" id="Capa_1" xmlns="http://www.w3.org/2000/svg" xmlns:xlink="http://www.w3.org/1999/xlink" x="0px" y="0px"
	 viewBox="-140 325.4 469.3 469.3" style="enable-background:new -140 325.4 469.3 469.3;" xml:space="preserve">
<style type="text/css">
	.st0{fill:#BF0000;}
</style>
<g>
	<path class="st0" d="M298.9,355.8c-40.4-40.5-106.1-40.5-146.5,0l-268.6,268.5c-2.1,2.1-3.4,4.8-3.8,7.7l-19.9,147.4
		c-0.6,4.2,0.9,8.4,3.8,11.3c2.5,2.5,6,4,9.5,4c0.6,0,1.2,0,1.8-0.1l88.8-12c7.4-1,12.6-7.8,11.6-15.2s-7.8-12.6-15.2-11.6
		l-71.2,9.6l13.9-102.8L11.3,770.8c2.5,2.5,6,4,9.5,4s7-1.4,9.5-4l268.6-268.5c19.6-19.6,30.4-45.6,30.4-73.3
		C329.3,401.3,318.5,375.3,298.9,355.8z M157.6,388.8l45.1,45.1L-42.4,679l-45.1-45.1L157.6,388.8z M20.9,742.2l-44.1-44.1
		L221.9,453l44.1,44.1L20.9,742.2z M284.8,477.8L176.9,369.9c13.7-11.3,30.8-17.5,48.8-17.5c20.5,0,39.7,8,54.2,22.4
		c14.5,14.4,22.4,33.7,22.4,54.2C302.3,447.1,296.1,464.1,284.8,477.8z"/>
</g>
</svg>
