<?xml version="1.0" encoding="utf-8"?>
<!-- Generator: Adobe Illustrator 19.1.0, SVG Export Plug-In . SVG Version: 6.00 Build 0)  -->
<svg version="1.1" id="Capa_1" xmlns="http://www.w3.org/2000/svg" xmlns:xlink="http://www.w3.org/1999/xlink" x="0px" y="0px"
	 viewBox="-97.1 307.2 432.6 486.4" style="enable-background:new -97.1 307.2 432.6 486.4;" xml:space="preserve">
<style type="text/css">
	.st0{fill:#BF0000;}
</style>
<g>
	<g>
		<path class="st0" d="M322,377.2H220.8v-16.5c0-29.5-24-53.5-53.5-53.5H71.1c-29.5,0-53.5,24-53.5,53.5v16.5H-83.6
			c-7.5,0-13.5,6-13.5,13.5s6,13.5,13.5,13.5h24.4v317.2c0,39.8,32.4,72.2,72.2,72.2h212.4c39.8,0,72.2-32.4,72.2-72.2V404.2H322
			c7.5,0,13.5-6,13.5-13.5S329.5,377.2,322,377.2z M44.6,360.7c0-14.6,11.9-26.5,26.5-26.5h96.2c14.6,0,26.5,11.9,26.5,26.5v16.5
			H44.6V360.7z M270.6,721.4c0,24.9-20.3,45.2-45.2,45.2H13c-24.9,0-45.2-20.3-45.2-45.2V404.2h302.9L270.6,721.4L270.6,721.4
			L270.6,721.4z"/>
		<path class="st0" d="M119.2,718.2c7.5,0,13.5-6,13.5-13.5V466.1c0-7.5-6-13.5-13.5-13.5s-13.5,6-13.5,13.5v238.5
			C105.7,712.1,111.7,718.2,119.2,718.2z"/>
		<path class="st0" d="M31.1,703.3c7.5,0,13.5-6,13.5-13.5V480.9c0-7.5-6-13.5-13.5-13.5s-13.5,6-13.5,13.5v208.9
			C17.6,697.3,23.7,703.3,31.1,703.3z"/>
		<path class="st0" d="M207.3,703.3c7.5,0,13.5-6,13.5-13.5V480.9c0-7.5-6-13.5-13.5-13.5s-13.5,6-13.5,13.5v208.9
			C193.8,697.3,199.8,703.3,207.3,703.3z"/>
	</g>
</g>
</svg>
