<?xml version="1.0" encoding="utf-8"?>
<!-- Generator: Adobe Illustrator 19.1.0, SVG Export Plug-In . SVG Version: 6.00 Build 0)  -->
<svg version="1.1" id="Layer_1" xmlns="http://www.w3.org/2000/svg" xmlns:xlink="http://www.w3.org/1999/xlink" x="0px" y="0px"
	 viewBox="-231 354 147.4 86" style="enable-background:new -231 354 147.4 86;" xml:space="preserve">
<style type="text/css">
	.st0{opacity:0.4;enable-background:new    ;}
	.st1{fill:#D73F72;}
	.st2{fill:#FF7BAC;}
	.st3{fill:#F7B7CF;}
	.st4{fill:#E5E7EA;}
	.st5{enable-background:new    ;}
</style>
<g id="Layer_3">
</g>
<g id="Layer_2">
</g>
<path class="st0" d="M-157.1,359.9c28.7,0,52,22.7,52,51.7h2.5c0-30-24.4-54.2-54.5-54.2s-54.5,24.2-54.5,54.2h2.5
	C-209.2,382.6-185.9,359.9-157.1,359.9z"/>
<path class="st1" d="M-157.1,372c22,0,39.9,17.6,39.9,39.6h14c0-30-24.1-53.5-53.8-53.5s-53.8,23.5-53.8,53.5h14
	C-197,389.6-179.2,372-157.1,372z"/>
<path class="st2" d="M-157.1,372c7,0,13.6,1.8,19.4,5l6.8-12.2c-7.8-4.3-16.7-6.7-26.2-6.7c-29.7,0-53.8,23.5-53.8,53.5h14
	C-197,389.6-179.2,372-157.1,372z"/>
<path class="st3" d="M-173.7,375.5l-5.8-12.7c-18.6,8.3-31.5,26.8-31.5,48.7h14C-197,395.5-187.5,381.8-173.7,375.5z"/>
<path class="st4" d="M-102.9,421.1c-0.1-0.2-0.2-0.4-0.3-0.5c-0.1-0.1-0.3-0.2-0.5-0.3c-0.2-0.1-0.4-0.1-0.6-0.1s-0.4,0-0.6,0.1
	s-0.3,0.2-0.5,0.3s-0.3,0.3-0.3,0.5c-0.1,0.2-0.1,0.4-0.1,0.7c0,0.3,0,0.5,0.1,0.7s0.2,0.4,0.3,0.5s0.3,0.2,0.5,0.3
	c0.2,0.1,0.4,0.1,0.6,0.1s0.4,0,0.6-0.1s0.3-0.2,0.5-0.3c0.1-0.1,0.3-0.3,0.3-0.5s0.1-0.4,0.1-0.7
	C-102.7,421.6-102.8,421.3-102.9,421.1z M-103.2,422.3c-0.1,0.2-0.1,0.3-0.2,0.4s-0.2,0.2-0.4,0.3c-0.1,0.1-0.3,0.1-0.5,0.1
	s-0.3,0-0.5-0.1c-0.1-0.1-0.3-0.1-0.4-0.3c-0.1-0.1-0.2-0.2-0.2-0.4c-0.1-0.2-0.1-0.3-0.1-0.5s0-0.4,0.1-0.5
	c0.1-0.2,0.1-0.3,0.2-0.4s0.2-0.2,0.4-0.3c0.1-0.1,0.3-0.1,0.5-0.1s0.3,0,0.5,0.1c0.1,0.1,0.3,0.1,0.4,0.3c0.1,0.1,0.2,0.2,0.2,0.4
	c0.1,0.2,0.1,0.3,0.1,0.5S-103.2,422.2-103.2,422.3z M-103.9,421.9c0.1,0,0.2-0.1,0.2-0.2s0.1-0.2,0.1-0.3c0-0.2-0.1-0.3-0.2-0.4
	s-0.3-0.1-0.6-0.1c-0.1,0-0.1,0-0.2,0s-0.2,0-0.3,0v1.6h0.4v-0.6h0.2c0.1,0.1,0.1,0.2,0.2,0.3c0.1,0.1,0.1,0.2,0.2,0.3h0.4
	c-0.1-0.1-0.1-0.3-0.2-0.4C-103.8,422.1-103.9,422-103.9,421.9z M-104.1,421.7c-0.1,0-0.2,0-0.3,0h-0.1v-0.5h0.1h0.1
	c0.1,0,0.2,0,0.2,0.1c0.1,0,0.1,0.1,0.1,0.2C-104,421.6-104,421.7-104.1,421.7z"/>
<g class="st5">
	<path class="st4" d="M-207.9,435.7c0.9,0,1.6-0.2,2.1-0.6c0.5-0.4,0.8-1.1,0.8-2c0-0.5-0.1-1-0.2-1.3c-0.2-0.4-0.4-0.7-0.7-0.9
		c-0.3-0.2-0.6-0.5-0.9-0.6c-0.4-0.2-0.7-0.4-1.1-0.6c-0.5-0.2-0.9-0.5-1.3-0.7c-0.4-0.2-0.7-0.5-1-0.8c-0.3-0.3-0.5-0.7-0.6-1.1
		s-0.2-0.9-0.2-1.4c0-1.2,0.3-2.2,1-2.8c0.7-0.6,1.6-1,2.8-1c0.3,0,0.6,0,0.9,0.1s0.6,0.1,0.9,0.2s0.5,0.2,0.7,0.3
		c0.2,0.1,0.4,0.2,0.6,0.4l-0.4,1.2c-0.3-0.3-0.7-0.5-1.2-0.7c-0.5-0.2-1-0.3-1.5-0.3c-0.4,0-0.7,0-1,0.1c-0.3,0.1-0.6,0.2-0.8,0.4
		c-0.2,0.2-0.4,0.5-0.5,0.8c-0.1,0.3-0.2,0.7-0.2,1.1c0,0.4,0.1,0.8,0.2,1.1c0.1,0.3,0.3,0.6,0.6,0.8c0.2,0.2,0.5,0.4,0.9,0.6
		c0.3,0.2,0.7,0.4,1.1,0.6c0.5,0.2,0.9,0.5,1.3,0.7c0.4,0.2,0.8,0.5,1.1,0.8c0.3,0.3,0.5,0.7,0.7,1.2s0.3,1,0.3,1.7
		c0,1.3-0.4,2.3-1.1,3c-0.7,0.7-1.7,1-3,1c-0.5,0-0.9,0-1.2-0.1c-0.4-0.1-0.7-0.2-1-0.3c-0.3-0.1-0.5-0.2-0.7-0.3
		c-0.2-0.1-0.4-0.2-0.5-0.3l0.4-1.2c0.1,0.1,0.3,0.2,0.5,0.3c0.2,0.1,0.4,0.2,0.7,0.3s0.6,0.2,0.9,0.3
		C-208.7,435.7-208.3,435.7-207.9,435.7z"/>
	<path class="st4" d="M-201.8,426.2c0.3-0.1,0.8-0.2,1.3-0.4c0.5-0.1,1.2-0.2,2-0.2c1.1,0,1.9,0.4,2.4,1.2c0.1-0.1,0.2-0.1,0.3-0.3
		c0.2-0.1,0.4-0.3,0.6-0.4c0.2-0.1,0.5-0.3,0.9-0.4c0.3-0.1,0.7-0.1,1.1-0.1c0.7,0,1.2,0.1,1.6,0.4c0.4,0.2,0.7,0.6,1,1
		c0.2,0.4,0.4,1,0.5,1.6c0.1,0.6,0.1,1.3,0.1,2v6h-1.1V431c0-0.7,0-1.3-0.1-1.9s-0.2-1-0.3-1.3c-0.2-0.3-0.4-0.6-0.7-0.8
		c-0.3-0.2-0.7-0.3-1.1-0.3c-0.3,0-0.6,0-0.9,0.1c-0.3,0.1-0.5,0.2-0.7,0.3c-0.2,0.1-0.4,0.2-0.5,0.3c-0.1,0.1-0.2,0.2-0.3,0.3
		c0.1,0.4,0.2,0.8,0.2,1.2c0.1,0.5,0.1,0.9,0.1,1.4v6.2h-1.1V431c0-0.7,0-1.3-0.1-1.9c-0.1-0.5-0.2-1-0.3-1.3s-0.4-0.6-0.7-0.8
		s-0.7-0.3-1.1-0.3c-0.5,0-1,0-1.4,0.1c-0.4,0.1-0.6,0.1-0.7,0.2v9.5h-1.1V426.2z"/>
	<path class="st4" d="M-184.4,425.5c0.6,0,1.1,0.1,1.5,0.3c0.4,0.2,0.7,0.5,1,0.8c0.2,0.4,0.4,0.8,0.5,1.3c0.1,0.5,0.2,1,0.2,1.6
		v6.8c-0.1,0-0.3,0.1-0.5,0.1s-0.5,0.1-0.7,0.2s-0.6,0.1-0.9,0.1s-0.7,0.1-1.1,0.1c-0.5,0-0.9-0.1-1.3-0.2c-0.4-0.1-0.7-0.3-1-0.6
		c-0.3-0.3-0.5-0.6-0.7-1c-0.2-0.4-0.2-0.9-0.2-1.6c0-0.6,0.1-1.1,0.3-1.5c0.2-0.4,0.4-0.8,0.8-1c0.3-0.3,0.7-0.5,1.2-0.6
		c0.5-0.1,0.9-0.2,1.5-0.2c0.2,0,0.3,0,0.5,0c0.2,0,0.3,0,0.5,0.1c0.2,0,0.3,0.1,0.4,0.1c0.1,0,0.2,0.1,0.2,0.1v-0.7
		c0-0.4,0-0.7-0.1-1.1c0-0.4-0.1-0.7-0.3-1c-0.2-0.3-0.4-0.5-0.6-0.7c-0.3-0.2-0.6-0.3-1.1-0.3c-0.6,0-1.1,0.1-1.4,0.2
		c-0.3,0.1-0.5,0.2-0.7,0.3l-0.2-1.2c0.2-0.1,0.5-0.2,0.9-0.3S-185,425.5-184.4,425.5z M-184.3,435.6c0.4,0,0.8,0,1.1-0.1
		c0.3,0,0.6-0.1,0.8-0.1v-3.8c-0.1-0.1-0.3-0.1-0.6-0.2c-0.3-0.1-0.6-0.1-1.1-0.1c-0.3,0-0.6,0-0.9,0.1c-0.3,0-0.6,0.2-0.8,0.3
		c-0.2,0.2-0.5,0.4-0.6,0.7c-0.2,0.3-0.2,0.6-0.2,1.1c0,0.4,0.1,0.7,0.2,1c0.1,0.3,0.3,0.5,0.5,0.7c0.2,0.2,0.4,0.3,0.7,0.4
		C-185,435.6-184.7,435.6-184.3,435.6z"/>
	<path class="st4" d="M-175.4,425.6c0.4,0,0.7,0,1,0.1c0.3,0.1,0.5,0.1,0.7,0.2l-0.2,1.2c-0.1-0.1-0.3-0.1-0.6-0.2s-0.6-0.1-1.1-0.1
		c-0.5,0-0.9,0-1.1,0.1c-0.3,0.1-0.5,0.2-0.6,0.2v9.5h-1.1v-10.3c0.3-0.2,0.7-0.3,1.2-0.5C-176.8,425.7-176.2,425.6-175.4,425.6z"/>
	<path class="st4" d="M-171,425.8h3.5v1.2h-3.5v5.8c0,0.6,0,1.1,0.1,1.5c0.1,0.4,0.2,0.7,0.4,0.9c0.2,0.2,0.4,0.3,0.6,0.4
		c0.2,0.1,0.5,0.1,0.7,0.1c0.5,0,0.8-0.1,1.1-0.2s0.5-0.3,0.7-0.4l0.3,1.1c-0.2,0.1-0.4,0.3-0.8,0.4c-0.4,0.2-0.8,0.2-1.3,0.2
		c-0.5,0-1-0.1-1.4-0.3c-0.4-0.2-0.7-0.4-0.9-0.8c-0.2-0.4-0.4-0.8-0.5-1.3c-0.1-0.5-0.1-1.2-0.1-1.9v-10l1.1-0.3V425.8z"/>
</g>
<path class="st4" d="M-160.4,436.9c-0.9,0-1.7-0.2-2.4-0.5c-0.7-0.3-1.3-0.8-1.8-1.5s-0.9-1.4-1.1-2.4s-0.4-2-0.4-3.2
	c0-1.2,0.2-2.3,0.5-3.2s0.7-1.7,1.2-2.4s1.1-1.1,1.8-1.5s1.5-0.5,2.3-0.5c0.5,0,0.9,0,1.3,0.1c0.4,0.1,0.7,0.2,1,0.3
	c0.3,0.1,0.5,0.2,0.7,0.4c0.2,0.1,0.3,0.2,0.4,0.3l-0.6,2.2c-0.3-0.2-0.7-0.4-1.2-0.6c-0.5-0.2-1.1-0.3-1.6-0.3
	c-0.5,0-1,0.1-1.4,0.3c-0.4,0.2-0.8,0.5-1.1,1c-0.3,0.4-0.6,1-0.8,1.6s-0.3,1.4-0.3,2.3c0,0.8,0.1,1.5,0.2,2.1s0.4,1.2,0.7,1.7
	c0.3,0.5,0.7,0.8,1.1,1.1c0.5,0.3,1,0.4,1.6,0.4c0.8,0,1.4-0.1,1.9-0.3c0.5-0.2,0.8-0.4,1.1-0.5l0.6,2.2c-0.1,0.1-0.3,0.2-0.6,0.3
	s-0.5,0.2-0.8,0.3c-0.3,0.1-0.7,0.2-1.1,0.3C-159.5,436.9-159.9,436.9-160.4,436.9z"/>
<path class="st4" d="M-147,431.1c0,0.9-0.1,1.7-0.3,2.4c-0.2,0.7-0.5,1.3-0.9,1.8c-0.4,0.5-0.8,0.9-1.4,1.2
	c-0.5,0.3-1.1,0.4-1.7,0.4s-1.2-0.1-1.7-0.4c-0.5-0.3-1-0.7-1.3-1.2c-0.4-0.5-0.7-1.1-0.9-1.8c-0.2-0.7-0.3-1.5-0.3-2.4
	c0-0.9,0.1-1.6,0.3-2.4c0.2-0.7,0.5-1.3,0.9-1.8c0.4-0.5,0.8-0.9,1.4-1.2c0.5-0.3,1.1-0.4,1.7-0.4c0.6,0,1.2,0.1,1.7,0.4
	c0.5,0.3,1,0.7,1.4,1.2c0.4,0.5,0.7,1.1,0.9,1.8C-147.1,429.5-147,430.3-147,431.1z M-149.1,431.1c0-1.1-0.2-1.9-0.6-2.6
	s-0.9-1-1.6-1c-0.7,0-1.2,0.3-1.6,1s-0.6,1.5-0.6,2.6c0,1.1,0.2,2,0.6,2.6s0.9,1,1.6,1c0.7,0,1.2-0.3,1.6-1
	S-149.1,432.2-149.1,431.1z"/>
<path class="st4" d="M-144.9,426c0.4-0.1,0.9-0.3,1.5-0.4c0.6-0.1,1.3-0.2,2.1-0.2c0.7,0,1.3,0.1,1.8,0.4s0.9,0.6,1.2,1
	s0.5,1,0.6,1.6c0.1,0.6,0.2,1.3,0.2,2v6.2h-2.1v-5.8c0-0.6,0-1.1-0.1-1.5c-0.1-0.4-0.2-0.7-0.3-1s-0.3-0.4-0.6-0.6
	c-0.2-0.1-0.5-0.2-0.9-0.2c-0.3,0-0.5,0-0.8,0.1c-0.3,0-0.5,0.1-0.6,0.1v8.8h-2.1V426z"/>
<path class="st4" d="M-132.7,434.8c0.5,0,0.9-0.1,1.2-0.2s0.4-0.4,0.4-0.8c0-0.4-0.1-0.7-0.4-0.9s-0.7-0.5-1.3-0.8
	c-0.4-0.2-0.7-0.3-1-0.5c-0.3-0.2-0.6-0.4-0.8-0.7s-0.4-0.6-0.5-0.9c-0.1-0.4-0.2-0.8-0.2-1.3c0-1,0.3-1.8,0.9-2.4
	c0.6-0.6,1.4-0.9,2.4-0.9c0.5,0,1,0.1,1.5,0.2c0.5,0.1,0.8,0.2,1.1,0.3l-0.4,2c-0.2-0.1-0.5-0.2-0.9-0.3c-0.4-0.1-0.8-0.2-1.2-0.2
	c-0.4,0-0.8,0.1-1,0.3c-0.3,0.2-0.4,0.4-0.4,0.8c0,0.2,0,0.3,0.1,0.5c0.1,0.1,0.1,0.3,0.3,0.4c0.1,0.1,0.3,0.2,0.5,0.4
	c0.2,0.1,0.5,0.2,0.7,0.4c0.5,0.2,0.9,0.4,1.2,0.7c0.3,0.2,0.6,0.5,0.8,0.7c0.2,0.3,0.4,0.6,0.5,0.9c0.1,0.3,0.2,0.8,0.2,1.3
	c0,1-0.3,1.8-0.9,2.4c-0.6,0.5-1.5,0.8-2.7,0.8c-0.8,0-1.4-0.1-1.9-0.2c-0.5-0.2-0.8-0.3-1-0.4l0.4-2.1c0.3,0.2,0.7,0.3,1.1,0.4
	S-133.3,434.8-132.7,434.8z"/>
<path class="st4" d="M-119.1,431.1c0,0.9-0.1,1.7-0.3,2.4c-0.2,0.7-0.5,1.3-0.9,1.8c-0.4,0.5-0.8,0.9-1.4,1.2
	c-0.5,0.3-1.1,0.4-1.7,0.4s-1.2-0.1-1.7-0.4c-0.5-0.3-1-0.7-1.3-1.2c-0.4-0.5-0.7-1.1-0.9-1.8c-0.2-0.7-0.3-1.5-0.3-2.4
	c0-0.9,0.1-1.6,0.3-2.4c0.2-0.7,0.5-1.3,0.9-1.8c0.4-0.5,0.8-0.9,1.4-1.2c0.5-0.3,1.1-0.4,1.7-0.4c0.6,0,1.2,0.1,1.7,0.4
	c0.5,0.3,1,0.7,1.4,1.2c0.4,0.5,0.7,1.1,0.9,1.8C-119.2,429.5-119.1,430.3-119.1,431.1z M-121.3,431.1c0-1.1-0.2-1.9-0.6-2.6
	s-0.9-1-1.6-1c-0.7,0-1.2,0.3-1.6,1s-0.6,1.5-0.6,2.6c0,1.1,0.2,2,0.6,2.6s0.9,1,1.6,1c0.7,0,1.2-0.3,1.6-1
	S-121.3,432.2-121.3,431.1z"/>
<path class="st4" d="M-113.9,436.8c-0.6,0-1.1-0.1-1.5-0.3s-0.7-0.4-1-0.7c-0.2-0.3-0.4-0.6-0.5-1.1c-0.1-0.4-0.1-0.9-0.1-1.5v-12.6
	l2.1-0.4v12.5c0,0.3,0,0.6,0.1,0.8c0,0.2,0.1,0.4,0.2,0.5c0.1,0.1,0.2,0.3,0.4,0.3c0.2,0.1,0.4,0.1,0.7,0.2L-113.9,436.8z"/>
<path class="st4" d="M-112.5,431.2c0-1,0.1-1.8,0.3-2.5c0.2-0.7,0.5-1.3,0.9-1.8c0.4-0.5,0.8-0.8,1.3-1.1c0.5-0.2,1-0.4,1.5-0.4
	c1.2,0,2.2,0.5,2.9,1.4c0.7,0.9,1,2.3,1,4.2c0,0.1,0,0.3,0,0.5c0,0.2,0,0.3,0,0.5h-5.9c0.1,0.9,0.3,1.6,0.8,2
	c0.4,0.5,1.1,0.7,1.9,0.7c0.5,0,1-0.1,1.4-0.2c0.4-0.1,0.7-0.2,1-0.4l0.3,2.1c-0.1,0.1-0.3,0.1-0.5,0.2c-0.2,0.1-0.4,0.1-0.7,0.2
	c-0.3,0.1-0.5,0.1-0.8,0.2c-0.3,0-0.6,0.1-0.9,0.1c-0.8,0-1.5-0.1-2-0.4c-0.6-0.3-1.1-0.7-1.4-1.2c-0.4-0.5-0.7-1.1-0.8-1.8
	C-112.4,432.8-112.5,432-112.5,431.2z M-106.5,430.1c0-0.3,0-0.7-0.1-1c-0.1-0.3-0.2-0.6-0.3-0.8c-0.2-0.2-0.3-0.4-0.6-0.5
	c-0.2-0.1-0.5-0.2-0.8-0.2c-0.3,0-0.6,0.1-0.8,0.2s-0.4,0.3-0.6,0.6c-0.2,0.2-0.3,0.5-0.4,0.8s-0.2,0.6-0.2,0.9H-106.5z"/>
</svg>
