<?xml version="1.0" encoding="utf-8"?>
<!-- Generator: Adobe Illustrator 19.1.0, SVG Export Plug-In . SVG Version: 6.00 Build 0)  -->
<svg version="1.1" id="Capa_1" xmlns="http://www.w3.org/2000/svg" xmlns:xlink="http://www.w3.org/1999/xlink" x="0px" y="0px"
	 viewBox="0 0 85 21.8" style="enable-background:new 0 0 85 21.8;" xml:space="preserve">
<style type="text/css">
	.st0{fill:#ED1C2E;}
</style>
<path class="st0" d="M16.7,18.6c0.1-0.2,0.2-0.5,0.3-0.7c-0.2-0.1-0.3-0.1-0.5-0.3c0.3-0.5,0.4-0.8,0.5-1.4l0-3.4
	c-0.2,1-0.7,2.3-1.2,3c-0.1,0.2-0.2,0.3-0.3,0.5c0,0.1-0.3,0.5-0.3,1.1c-0.2,0-0.4,0-0.6,0c0,0.2,0,0.3,0,0.7
	c-0.8,0.1-1.1,0.6-2,1.1c-0.5,0.3-0.8,0.4-1.5,0.6c1.7,0,2.9,0.2,3.9-0.5c0.1,0.2,0.2,0.3,0.3,0.5c0.1-0.1,0.4-0.3,0.7-0.3
	c0.3,0.3,0.6,0.4,1.1,0.3C17.1,19.3,17,18.8,16.7,18.6z M16.8,17.9c-0.1,0.1-0.7,0.3-0.7,0.3l0,0c0-0.1,0-0.1,0-0.2l0,0
	c0.2-0.1,0.4-0.3,0.4-0.4C16.4,17.7,16.6,17.9,16.8,17.9z M16.3,15c0.6-1.3,0.5-1.3,0.6-1.8c0,0.3,0,0.6-0.1,0.9
	c-0.3,1.5-0.6,2.6-1.1,3.8c0,0-0.1,0-0.2,0c-0.1-0.1-0.1-0.3-0.1-0.3C15.2,16.6,15.8,16.1,16.3,15z M14.8,17.4l0.6,0.5l0,0
	c0,0,0,0,0,0c0,0-0.1,0.1-0.1,0.1l0,0c-0.3-0.1-0.5-0.1-0.5-0.1C14.8,17.6,14.8,17.4,14.8,17.4z M12.2,19.5
	c-0.3,0.1-0.5,0.1-0.7,0.1l0.6-0.2c1.3-0.5,1.6-1.3,2.5-1.3c0.2,0,0.4,0.1,0.5,0.1l0,0c0,0.1,0,0.1,0,0.2v0
	C14.6,18.7,13.2,19.2,12.2,19.5z M15.3,19.4c0-0.1-0.1-0.2-0.2-0.4c0.2-0.2,0.2-0.2,0.3-0.4l0,0c0.1,0,0.1,0.1,0.2,0.1l0,0
	L15.3,19.4z M15.4,18.4c-0.1-0.1-0.1-0.3,0-0.4c0.1-0.1,0.3-0.1,0.4,0c0.1,0.1,0.1,0.3,0,0.4C15.7,18.5,15.5,18.5,15.4,18.4z
	 M16,19.2c-0.1-0.2-0.2-0.3-0.2-0.5c0.1,0,0.1-0.1,0.2-0.1l0.9,0.9C16.5,19.5,16.2,19.4,16,19.2z"/>
<path class="st0" d="M16.7,1.1C17,0.8,17.1,0.4,17,0c-0.5,0-0.8,0.1-1.1,0.3c-0.2-0.1-0.5-0.2-0.7-0.3c-0.1,0.2-0.2,0.3-0.3,0.5
	c-1-0.7-2.3-0.5-3.9-0.5c0.7,0.3,1,0.4,1.5,0.6c1,0.5,1.2,1,2,1.1c0.1,0.4,0,0.4,0,0.7c0.2,0,0.4,0,0.6,0c0,0.5,0.3,1,0.3,1.1
	c0.1,0.1,0.1,0.3,0.3,0.5c0.5,0.7,1,2,1.2,3l0-3.4c-0.1-0.6-0.1-0.9-0.5-1.4c0.1-0.1,0.3-0.2,0.5-0.3C16.8,1.6,16.7,1.3,16.7,1.1z
	 M16,0.5c0.2-0.3,0.5-0.3,0.9-0.3l-0.9,0.9C15.9,1,15.8,1,15.7,1C15.8,0.8,15.8,0.6,16,0.5z M15.8,1.2c0.1,0.1,0.1,0.3,0,0.4
	c-0.1,0.1-0.3,0.1-0.4,0c-0.1-0.1-0.1-0.3,0-0.4C15.5,1.1,15.7,1.1,15.8,1.2z M15.3,0.2L15.6,1l0,0c-0.1,0-0.1,0-0.2,0.1l0,0
	c-0.1-0.2-0.1-0.2-0.3-0.4C15.2,0.5,15.3,0.3,15.3,0.2z M12.1,0.3l-0.6-0.2c0.2,0,0.4,0,0.7,0.1c1,0.2,2.4,0.7,3,1v0
	c0,0.1,0,0.1,0,0.2l0,0c-0.2,0.1-0.3,0.1-0.5,0.1C13.7,1.6,13.4,0.8,12.1,0.3z M15.3,1.8l-0.6,0.5c0,0,0-0.2,0-0.5
	c0,0,0.2,0,0.5-0.1l0,0C15.2,1.7,15.3,1.7,15.3,1.8C15.3,1.7,15.3,1.7,15.3,1.8L15.3,1.8z M16.8,5.6c0,0.2,0.1,0.6,0.1,0.9
	c-0.1-0.6,0-0.5-0.6-1.8c-0.5-1-1.1-1.6-0.9-2.5c0,0,0-0.2,0.1-0.3c0.1,0,0.2,0,0.2,0C16.2,3,16.6,4.1,16.8,5.6z M16.4,2
	c0,0-0.2-0.2-0.4-0.4l0,0c0,0,0-0.1,0-0.2l0,0c0,0,0.6,0.2,0.7,0.3C16.6,1.8,16.4,1.9,16.4,2z"/>
<path class="st0" d="M4.5,19c-1-0.5-1.2-1-2-1.1c-0.1-0.4,0-0.4,0-0.7c-0.2,0-0.4,0-0.6,0c0-0.5-0.3-1-0.3-1.1
	c-0.1-0.1-0.1-0.3-0.3-0.5c-0.5-0.7-1-2-1.2-3l0,3.4c0.1,0.6,0.1,0.9,0.5,1.4c-0.2,0.1-0.3,0.2-0.5,0.3c0.1,0.2,0.3,0.5,0.3,0.7
	C0,18.8,0,19.3,0,19.6c0.5,0,0.8-0.1,1.1-0.3c0.2,0.1,0.5,0.2,0.7,0.3c0.1-0.2,0.2-0.3,0.3-0.5c1,0.7,2.3,0.5,3.9,0.5
	C5.3,19.4,5,19.2,4.5,19z M2.2,17.4c0,0,0,0.2,0,0.5c0,0-0.2,0-0.5,0.1l0,0c0,0,0-0.1-0.1-0.1c0,0,0,0,0,0l0,0L2.2,17.4z M0.2,14.1
	c0-0.2-0.1-0.6-0.1-0.9c0.1,0.6,0,0.5,0.6,1.8c0.5,1,1.1,1.6,0.9,2.5c0,0,0,0.2-0.1,0.3c-0.1,0-0.2,0-0.2,0
	C0.8,16.6,0.5,15.5,0.2,14.1z M0.2,17.9c0.2,0,0.4-0.2,0.4-0.2c0,0,0.2,0.2,0.4,0.4l0,0c0,0,0,0.1,0,0.2l0,0
	C0.9,18.2,0.3,18,0.2,17.9z M1,19.2c-0.2,0.3-0.5,0.3-0.9,0.3l0.9-0.9c0,0.1,0.1,0.1,0.2,0.1C1.2,18.9,1.2,19,1,19.2z M1.2,18.4
	c-0.1-0.1-0.1-0.3,0-0.4s0.3-0.1,0.4,0c0.1,0.1,0.1,0.3,0,0.4C1.5,18.5,1.3,18.5,1.2,18.4z M1.7,19.4l-0.3-0.7l0,0
	c0.1,0,0.1,0,0.2-0.1l0,0c0.1,0.2,0.1,0.2,0.3,0.4C1.8,19.2,1.7,19.3,1.7,19.4z M1.8,18.4L1.8,18.4c0-0.1,0-0.1,0-0.2l0,0
	c0.2-0.1,0.3-0.1,0.5-0.1c0.9,0,1.2,0.8,2.5,1.3l0.6,0.2c-0.2,0-0.4,0-0.7-0.1C3.8,19.2,2.4,18.7,1.8,18.4z"/>
<path class="st0" d="M2.1,0.5C1.9,0.4,1.9,0.2,1.8,0C1.6,0.1,1.3,0.3,1.1,0.3C0.8,0.1,0.5,0,0,0C0,0.4,0,0.8,0.3,1.1
	C0.3,1.3,0.2,1.6,0,1.8c0.2,0.1,0.3,0.1,0.5,0.3C0.2,2.6,0.1,2.9,0,3.5l0,3.4c0.2-1,0.7-2.3,1.2-3c0.1-0.2,0.2-0.3,0.3-0.5
	c0-0.1,0.3-0.5,0.3-1.1c0.2,0,0.4,0,0.6,0c0-0.2,0-0.3,0-0.7c0.8-0.1,1.1-0.6,2-1.1C5,0.4,5.3,0.3,6,0C4.3,0.1,3.1-0.2,2.1,0.5z
	 M1.7,0.2c0,0.1,0.1,0.2,0.2,0.4C1.7,0.8,1.7,0.9,1.6,1l0,0C1.6,1,1.5,1,1.5,1l0,0L1.7,0.2z M1.6,1.2c0.1,0.1,0.1,0.3,0,0.4
	c-0.1,0.1-0.3,0.1-0.4,0c-0.1-0.1-0.1-0.3,0-0.4C1.3,1.1,1.5,1.1,1.6,1.2z M0.2,0.2c0.3,0,0.6,0,0.9,0.3C1.2,0.6,1.2,0.8,1.3,1
	C1.2,1,1.1,1,1.1,1.1L0.2,0.2z M0.2,1.7c0.1-0.1,0.7-0.3,0.7-0.3l0,0c0,0.1,0,0.1,0,0.2l0,0C0.8,1.7,0.6,1.9,0.6,2
	C0.6,1.9,0.4,1.8,0.2,1.7z M0.7,4.6C0.1,5.9,0.2,5.9,0.1,6.4c0-0.3,0-0.6,0.1-0.9C0.5,4.1,0.8,3,1.3,1.8c0,0,0.1,0,0.2,0
	C1.6,2,1.6,2.1,1.6,2.1C1.8,3,1.2,3.6,0.7,4.6z M2.2,2.2L1.7,1.8l0,0c0,0,0,0,0,0c0,0,0.1-0.1,0.1-0.1l0,0c0.3,0.1,0.5,0.1,0.5,0.1
	C2.2,2.1,2.2,2.2,2.2,2.2z M2.4,1.6C2.2,1.6,2,1.5,1.8,1.4l0,0c0-0.1,0-0.1,0-0.2l0,0c0.6-0.3,2-0.8,3-1c0.3-0.1,0.5-0.1,0.7-0.1
	L4.9,0.3C3.6,0.8,3.3,1.6,2.4,1.6z"/>
<path class="st0" d="M8.5,0.1c-4.6,0-8.4,4.4-8.4,9.7s3.7,9.7,8.4,9.7c4.6,0,8.4-4.4,8.4-9.7S13.1,0.1,8.5,0.1z M2.7,14.7
	c-0.8-1.4-1.3-3-1.3-4.9S1.9,6.4,2.7,5V14.7z M2.7,4.5C1.7,6,1.2,7.8,1.2,9.8s0.6,3.9,1.5,5.3v0.5c-1.1-1.6-1.8-3.6-1.8-5.9
	S1.5,5.6,2.7,4V4.5z M4.5,2.1c0.5-0.3,1-0.6,1.5-0.9v0.3c-0.5,0.2-1,0.5-1.5,0.9V2.1z M6,18.4c-0.5-0.2-1-0.5-1.5-0.9v-0.4
	c0.5,0.4,1,0.7,1.5,0.9V18.4z M6,17.8c-0.5-0.2-1-0.6-1.5-0.9v-14c0.5-0.4,1-0.7,1.5-0.9V17.8z M9.3,18.8c-0.2,0-0.5,0-0.8,0
	c-0.3,0-0.5,0-0.7,0v-0.3c0.2,0,0.5,0,0.7,0c0.3,0,0.5,0,0.8,0V18.8z M7.8,18.3V1.4c0.2,0,0.5,0,0.7,0c0.3,0,0.5,0,0.8,0v16.9
	c-0.2,0-0.5,0-0.8,0C8.3,18.3,8,18.3,7.8,18.3z M9.3,1.1c-0.2,0-0.5,0-0.8,0c-0.3,0-0.5,0-0.7,0V0.8c0.2,0,0.5,0,0.7,0
	c0.3,0,0.5,0,0.8,0V1.1z M12.6,17.5c-0.5,0.3-1,0.6-1.5,0.9V18c0.5-0.2,1-0.5,1.5-0.9V17.5z M12.6,16.8c-0.5,0.4-1,0.7-1.5,0.9V1.9
	c0.5,0.2,1,0.6,1.5,0.9V16.8z M12.6,2.5c-0.5-0.4-1-0.7-1.5-0.9V1.3c0.5,0.2,1,0.5,1.5,0.9V2.5z M14.4,5c0.8,1.4,1.3,3,1.3,4.8
	s-0.5,3.5-1.3,4.8V5z M14.4,15.1c1-1.5,1.5-3.3,1.5-5.3c0-2-0.6-3.8-1.5-5.3V4c1.1,1.6,1.8,3.6,1.8,5.9s-0.7,4.3-1.8,5.9V15.1z"/>
<path d="M25.9,5.3H29v4h-1l-0.2-0.9c-0.4,0.5-1,1.1-2.3,1.1c-1.8,0-3.4-1.3-3.4-3.9c0-2,1.1-3.9,3.6-3.9c2.3,0,3.2,1.5,3.2,2.5h-1.5
	c0-0.3-0.5-1.2-1.6-1.2c-1.1,0-2.1,0.8-2.1,2.7c0,2,1.1,2.5,2.2,2.5c0.3,0,1.5-0.1,1.8-1.6h-1.7V5.3"/>
<path d="M33.6,7.7c-0.1,0.4-0.5,0.6-0.9,0.6c-1.2,0-1.2-0.9-1.3-1.3h3.8V6.7c0-2.5-1.5-3-2.6-3c-2.4,0-2.6,2.1-2.6,2.8
	c0,2.3,1.2,3,2.7,3c0.9,0,2-0.4,2.4-1.8H33.6 M31.4,6c0.1-0.7,0.4-1.2,1.1-1.2c0.5,0,1,0.3,1.1,1.2H31.4z"/>
<path d="M41.1,9.3h-1.4V6c0-0.4,0-1.1-0.9-1.1c-0.6,0-1.1,0.4-1.1,1.3v3.1h-1.4V3.8h1.4v0.8h0c0.2-0.3,0.6-0.9,1.6-0.9
	c1.1,0,1.9,0.6,1.9,1.8V9.3"/>
<path d="M45.6,7.7c-0.1,0.4-0.5,0.6-0.9,0.6c-1.2,0-1.2-0.9-1.3-1.3h3.8V6.7c0-2.5-1.5-3-2.6-3c-2.4,0-2.6,2.1-2.6,2.8
	c0,2.3,1.2,3,2.7,3c0.9,0,2-0.4,2.4-1.8H45.6 M43.4,6c0.1-0.7,0.4-1.2,1.1-1.2c0.5,0,1,0.3,1.1,1.2H43.4z"/>
<path d="M48.1,3.8h1.4v0.9h0c0.3-0.6,0.6-1.1,1.5-1.1c0.1,0,0.2,0,0.3,0v1.5c-0.1,0-0.3,0-0.4,0c-1.1,0-1.3,0.7-1.3,1.3v2.9h-1.4
	V3.8"/>
<path d="M56.6,5.3c0-1.4-1.4-1.6-2.2-1.6c-1.1,0-2.3,0.2-2.5,1.9h1.4c0-0.3,0.2-0.8,0.9-0.8c0.4,0,0.9,0,0.9,0.6
	c0,0.3-0.3,0.4-0.5,0.4l-1.3,0.2c-0.9,0.1-1.6,0.7-1.6,1.8c0,1.1,0.8,1.6,1.7,1.6c1,0,1.4-0.5,1.8-0.8c0,0.3,0.1,0.4,0.1,0.6h1.6
	V9.1c-0.2-0.1-0.3-0.2-0.3-0.9V5.3 M55.2,7.4c0,0.7-0.7,1.1-1.3,1.1c-0.3,0-0.7-0.2-0.7-0.7c0-0.6,0.4-0.7,1-0.8
	c0.6-0.1,0.8-0.2,1-0.3V7.4z"/>
<rect x="57.9" y="1.9" width="1.4" height="7.4"/>
<path d="M60.8,1.8h1.4v1.3h-1.4V1.8z M60.8,3.8h1.4v5.5h-1.4V3.8z"/>
<path d="M65.2,3.8h0.9v1h-0.9v3c0,0.3,0,0.4,0.6,0.4c0.1,0,0.2,0,0.3,0v1.1c-0.2,0-0.5,0-0.7,0h-0.2c-1.2,0-1.5-0.5-1.5-1.2V4.9H63
	v-1h0.7V2.4h1.4V3.8"/>
<path d="M71.5,5.3c0-1.4-1.4-1.6-2.2-1.6c-1.1,0-2.3,0.2-2.5,1.9h1.4c0-0.3,0.2-0.8,0.9-0.8c0.4,0,0.9,0,0.9,0.6
	c0,0.3-0.3,0.4-0.5,0.4l-1.3,0.2c-0.9,0.1-1.6,0.7-1.6,1.8c0,1.1,0.8,1.6,1.7,1.6c1,0,1.4-0.5,1.8-0.8c0,0.3,0.1,0.4,0.1,0.6h1.6
	V9.1c-0.2-0.1-0.3-0.2-0.3-0.9V5.3 M70.1,7.4c0,0.7-0.7,1.1-1.3,1.1c-0.3,0-0.7-0.2-0.7-0.7c0-0.6,0.4-0.7,1-0.8
	c0.6-0.1,0.8-0.2,1-0.3V7.4z"/>
<path d="M74.4,3.8h0.9v1h-0.9v3c0,0.3,0,0.4,0.6,0.4c0.1,0,0.2,0,0.3,0v1.1c-0.2,0-0.5,0-0.7,0h-0.2c-1.2,0-1.5-0.5-1.5-1.2V4.9
	h-0.7v-1h0.7V2.4h1.4V3.8"/>
<path d="M27.4,12.2h-1.4v2.6h0c-0.2-0.3-0.7-0.9-1.6-0.9c-1.2,0-2.3,0.9-2.3,2.8c0,1.5,0.7,2.9,2.3,2.9c0.6,0,1.2-0.2,1.6-0.8h0v0.7
	h1.4V12.2 M23.5,16.9c0-0.9,0.3-1.7,1.2-1.7c1,0,1.2,0.9,1.2,1.8c0,0.8-0.4,1.6-1.3,1.6C23.8,18.6,23.5,17.6,23.5,16.9z"/>
<path d="M31.9,18c-0.1,0.4-0.5,0.6-0.9,0.6c-1.2,0-1.2-0.9-1.3-1.3h3.8V17c0-2.5-1.5-3-2.6-3c-2.4,0-2.6,2.1-2.6,2.8
	c0,2.3,1.2,3,2.7,3c0.9,0,2-0.4,2.4-1.8H31.9 M29.7,16.3c0.1-0.7,0.4-1.2,1.1-1.2c0.5,0,1,0.3,1.1,1.2H29.7z"/>
<path d="M42.1,14.7c-0.1-0.4-0.4-1.3-1.6-1.3c-0.7,0-1.8,0.5-1.8,2.6c0,1.3,0.5,2.5,1.8,2.5c0.9,0,1.5-0.5,1.6-1.4h1.5
	c-0.3,1.6-1.4,2.7-3.2,2.7c-2,0-3.4-1.3-3.4-3.9c0-2.6,1.5-3.9,3.4-3.9c2.2,0,3.1,1.5,3.2,2.6H42.1"/>
<path d="M49.1,15.6c0-1.3-1.4-1.6-2.2-1.6c-1.1,0-2.3,0.2-2.5,1.9h1.4c0-0.3,0.2-0.8,0.9-0.8c0.4,0,0.9,0,0.9,0.6
	c0,0.3-0.3,0.4-0.5,0.4l-1.3,0.2c-0.9,0.1-1.6,0.7-1.6,1.8c0,1.1,0.8,1.6,1.7,1.6c1,0,1.4-0.5,1.8-0.8c0,0.3,0.1,0.4,0.1,0.7h1.6
	v-0.2c-0.2-0.1-0.3-0.2-0.3-0.9V15.6 M47.7,17.7c0,0.7-0.7,1.1-1.3,1.1c-0.3,0-0.7-0.2-0.7-0.7c0-0.6,0.4-0.7,1-0.8
	c0.6-0.1,0.8-0.2,1-0.3V17.7z"/>
<path d="M52,14.2h0.9v1H52v3c0,0.3,0,0.4,0.6,0.4c0.1,0,0.2,0,0.3,0v1.1c-0.2,0-0.5,0-0.7,0h-0.2c-1.2,0-1.5-0.5-1.5-1.2v-3.3h-0.7
	v-1h0.7v-1.5H52V14.2"/>
<path d="M58.3,15.6c0-1.3-1.4-1.6-2.2-1.6c-1.1,0-2.3,0.2-2.5,1.9H55c0-0.3,0.2-0.8,0.9-0.8c0.4,0,0.9,0,0.9,0.6
	c0,0.3-0.3,0.4-0.5,0.4l-1.3,0.2c-0.9,0.1-1.6,0.7-1.6,1.8c0,1.1,0.8,1.6,1.7,1.6c1,0,1.4-0.5,1.8-0.8c0,0.3,0.1,0.4,0.1,0.7h1.6
	v-0.2c-0.2-0.1-0.3-0.2-0.3-0.9V15.6 M56.9,17.7c0,0.7-0.6,1.1-1.3,1.1c-0.3,0-0.7-0.2-0.7-0.7c0-0.6,0.4-0.7,1-0.8
	c0.6-0.1,0.8-0.2,1-0.3V17.7z"/>
<rect x="59.6" y="12.2" width="1.4" height="7.4"/>
<path d="M67.4,19.6H66v-0.8h0c-0.3,0.6-0.9,0.9-1.7,0.9c-1.1,0-1.9-0.6-1.9-2v-3.6h1.4v3.4c0,0.8,0.5,1,0.9,1c0.5,0,1.1-0.3,1.1-1.2
	v-3.2h1.4V19.6"/>
<path d="M73.7,19.6h-1.4v-3.3c0-0.4,0-1.1-0.9-1.1c-0.6,0-1.1,0.4-1.1,1.3v3.1h-1.4v-5.5h1.4V15h0c0.2-0.3,0.6-0.9,1.7-0.9
	c1.1,0,1.9,0.6,1.9,1.8V19.6"/>
<path d="M77.9,19.5c-0.7,2-0.9,2.3-2.1,2.3c-0.2,0-0.4,0-0.6,0v-1.2c0.1,0,0.2,0,0.3,0c0.5,0,0.8-0.1,0.9-0.8l-2-5.7h1.6l1.2,4h0
	l1.1-4h1.5L77.9,19.5"/>
<path d="M84.7,15.6c0-1.3-1.4-1.6-2.2-1.6c-1.1,0-2.3,0.2-2.5,1.9h1.4c0-0.3,0.2-0.8,0.9-0.8c0.4,0,0.9,0,0.9,0.6
	c0,0.3-0.3,0.4-0.5,0.4l-1.3,0.2c-0.9,0.1-1.6,0.7-1.6,1.8c0,1.1,0.8,1.6,1.7,1.6c1,0,1.4-0.5,1.8-0.8c0,0.3,0.1,0.4,0.1,0.7H85
	v-0.2c-0.2-0.1-0.3-0.2-0.3-0.9V15.6 M83.3,17.7c0,0.7-0.7,1.1-1.3,1.1c-0.3,0-0.7-0.2-0.7-0.7c0-0.6,0.4-0.7,1-0.8
	c0.6-0.1,0.8-0.2,1-0.3V17.7z"/>
</svg>
