<?xml version="1.0" encoding="iso-8859-1"?>
<!-- Generator: Adobe Illustrator 19.1.0, SVG Export Plug-In . SVG Version: 6.00 Build 0)  -->
<svg version="1.1" id="Layer_1" xmlns="http://www.w3.org/2000/svg" xmlns:xlink="http://www.w3.org/1999/xlink" x="0px" y="0px"
	 viewBox="0 0 127 24" style="enable-background:new 0 0 127 24;" xml:space="preserve">
<rect x="0.19" y="0" style="fill:#EA8697;" width="26.851" height="23.582"/>
<g>
	<path style="fill:#060E9F;" d="M17.5,13.915c-1.726,0.232-3.465,0.357-5.207,0.303c-0.686-0.021-1.315-0.177-1.979-0.31
		c-0.362-0.072-0.729-0.115-1.09-0.194c-0.329-0.071-1.07-0.091-1.273-0.326c-0.313-0.362-0.464-1.151-0.575-1.592
		c-0.18-0.711-0.248-1.442-0.468-2.141C6.702,9,6.78,8.19,6.772,7.505C6.764,6.87,6.758,6.229,6.899,5.607
		c0.185-0.818,0.555-1.775,1.037-2.465c0.16-0.23,0.319-0.539,0.567-0.664C8.806,2.327,9.23,2.284,9.561,2.285
		c1.749,0.006,3.502,0.079,5.251,0.105C15.8,2.404,16.781,2.429,17.77,2.4c0.465-0.013,0.933-0.022,1.398-0.046
		c0.39-0.02,0.766-0.123,1.155-0.153c0.304-0.024,0.591,0.107,0.826,0.308c0.21,0.18,0.137,0.34,0.131,0.631
		c-0.018,0.892,0.09,1.746,0.205,2.628c0.201,1.545,0.607,3.041,0.731,4.587c0.061,0.768,0.109,1.853-0.262,2.555
		c-0.243,0.459-0.958,0.465-1.333,0.526c-0.587,0.093-1.199,0.18-1.792,0.221C18.346,13.69,17.963,13.846,17.5,13.915"/>
	<path style="fill:#FFFFFF;" d="M9.248,3.232c0.275-0.605,1.005-0.335,1.52-0.286c0.488,0.046,0.974,0.112,1.458,0.204
		c1.441,0.274,2.868,0.614,4.349,0.483c0.699-0.062,1.417-0.07,2.101-0.237c0.564-0.137,1.471-0.199,1.677,0.515
		c0.181,0.626-0.01,1.332,0,1.967c0.012,0.791,0.06,1.58,0.076,2.371c0.015,0.713,0.004,1.453,0.083,2.162
		c0.043,0.38,0.143,0.97-0.104,1.292c-0.361,0.472-1.045,0.514-1.575,0.652c-0.744,0.193-1.498,0.35-2.258,0.467
		c-1.017,0.157-2.068,0.167-3.078,0.362c-0.549,0.106-1.13,0.062-1.689,0.031c-0.399-0.022-0.805-0.049-1.197-0.13
		c-0.433-0.089-0.915-0.117-1.33-0.263c-0.822-0.288-0.802-0.968-0.803-1.739c0-0.922-0.042-1.833,0.012-2.756
		c0.053-0.909,0.195-1.842,0.297-2.748c0.051-0.451,0.147-0.881,0.171-1.337C8.973,3.945,9.01,3.453,9.248,3.232
		C9.423,2.847,9.192,3.283,9.248,3.232z"/>
	<path style="fill:#060E9F;" d="M23.648,19.3c-0.709,0.236-1.458,0.2-2.193,0.246c-0.907,0.056-1.815-0.005-2.724,0.035
		c-0.907,0.039-1.806,0.126-2.714,0.151c-0.433,0.012-0.854-0.082-1.287-0.059c-0.371,0.02-0.742,0.036-1.112,0.058
		c-0.402,0.023-0.78,0.106-1.172,0.193c-0.496,0.111-0.981,0.1-1.483,0.143c-0.914,0.078-1.842,0.333-2.748,0.488
		c-0.875,0.149-1.684,0.405-2.541,0.621c-0.569,0.143-1.437,0.399-1.944-0.028c-0.468-0.394-0.43-1.174-0.538-1.725
		c-0.137-0.699-0.337-1.347,0.283-1.862c0.426-0.354,0.997-0.641,1.501-0.884c0.776-0.375,1.624-0.635,2.459-0.836
		c1.788-0.432,3.544-0.881,5.374-1.113c1.802-0.228,3.598-0.357,5.403-0.495c1.114-0.085,2.242-0.069,3.359-0.101
		c0.652-0.019,1.945-0.16,2.301,0.579c0.141,0.292,0.082,0.726,0.082,1.039c0.001,0.293,0.048,0.566,0.089,0.857
		c0.069,0.485,0.097,0.974,0.13,1.462C24.213,18.628,24.073,18.919,23.648,19.3"/>
	<g>
		<circle style="fill:#FFFFFF;" cx="6.524" cy="17.779" r="0.434"/>
	</g>
	<g>
		<circle style="fill:#FFFFFF;" cx="9.53" cy="17.756" r="0.434"/>
	</g>
	<g>
		<circle style="fill:#FFFFFF;" cx="10.644" cy="18.113" r="0.434"/>
	</g>
	<g>
		<circle style="fill:#FFFFFF;" cx="11.89" cy="16.489" r="0.434"/>
	</g>
	<g>
		<circle style="fill:#FFFFFF;" cx="12.912" cy="17.604" r="0.434"/>
	</g>
	<g>
		<circle style="fill:#FFFFFF;" cx="13.059" cy="15.808" r="0.434"/>
	</g>
	<g>
		<circle style="fill:#FFFFFF;" cx="8.985" cy="19.077" r="0.434"/>
	</g>
	<g>
		<circle style="fill:#FFFFFF;" cx="7.64" cy="19.32" r="0.434"/>
	</g>
	<g>
		<circle style="fill:#FFDD00;" cx="11.871" cy="18.379" r="0.295"/>
	</g>
	<g>
		<circle style="fill:#FFDD00;" cx="9.71" cy="16.261" r="0.295"/>
	</g>
	<g>
		<circle style="fill:#FFDD00;" cx="8.311" cy="17.744" r="0.295"/>
	</g>
	<g>
		<circle style="fill:#FFDD00;" cx="6.245" cy="19.421" r="0.295"/>
	</g>
	<g>
		<circle style="fill:#FFDD00;" cx="16.959" cy="16.285" r="0.576"/>
	</g>
	<g>
		<circle style="fill:#FFDD00;" cx="20.269" cy="16.433" r="0.576"/>
	</g>
	<g>
		<circle style="fill:#FFDD00;" cx="19.049" cy="17.546" r="0.576"/>
	</g>
	<g>
		<circle style="fill:#FFDD00;" cx="17.604" cy="18.214" r="0.576"/>
	</g>
	<g>
		<path style="fill:#060E9F;" d="M12.16,6.062h-1V5.063h1V6.062z M11.28,5.942h0.759V5.184H11.28V5.942z"/>
	</g>
	<g>
		<path style="fill:#060E9F;" d="M18.77,5.354H17.77V4.355h0.999V5.354z M17.891,5.234h0.759V4.476h-0.759V5.234z"/>
	</g>
	<g>
		<path style="fill:#060E9F;" d="M19.934,9.344h-1V8.347h1V9.344z M19.054,9.223h0.759V8.467h-0.759V9.223z"/>
	</g>
	<g>
		<path style="fill:#060E9F;" d="M16.05,10.326H15.05V9.328h1.001V10.326z M15.17,10.206h0.76V9.448h-0.76V10.206z"/>
	</g>
	<g>
		<path style="fill:#060E9F;" d="M14.127,10.055h-0.999V9.056h0.999V10.055z M13.248,9.935h0.759V9.176h-0.759V9.935z"/>
	</g>
	<g>
		<path style="fill:#060E9F;" d="M10.092,11.25L9.2,10.798l0.455-0.889l0.891,0.453L10.092,11.25z M9.362,10.746l0.677,0.343
			l0.345-0.674l-0.676-0.344L9.362,10.746z"/>
	</g>
	<g>
		<polygon style="fill:#060E9F;" points="10.211,9.704 11.623,6.59 11.733,6.639 10.434,9.503 13.627,8.443 18.169,5.997 
			18.203,5.279 18.323,5.285 18.286,6.07 13.675,8.553 		"/>
	</g>
	<g>
		<polygon style="fill:#060E9F;" points="17.702,7.811 17.699,7.69 19.318,7.656 18.204,6.105 14.927,7.219 11.668,6.674 
			11.688,6.555 14.917,7.095 18.25,5.962 19.55,7.771 		"/>
	</g>
	<g>
		<polygon style="fill:#060E9F;" points="15.501,8.819 14.866,7.179 14.978,7.135 15.567,8.656 17.676,7.696 17.726,7.805 		"/>
	</g>
	<g>
		
			<rect x="13.668" y="8.55" transform="matrix(0.9907 0.1363 -0.1363 0.9907 1.3101 -1.9107)" style="fill:#060E9F;" width="1.874" height="0.12"/>
	</g>
	<g>
		<polygon style="fill:#060E9F;" points="15.505,8.79 11.589,6.62 11.589,6.034 11.71,6.034 11.71,6.549 15.563,8.685 		"/>
	</g>
	<g>
		
			<rect x="17.904" y="5.994" transform="matrix(0.9559 0.2937 -0.2937 0.9559 2.8164 -4.972)" style="fill:#060E9F;" width="0.12" height="1.796"/>
	</g>
	<g>
		<rect x="19.374" y="7.714" style="fill:#060E9F;" width="0.12" height="0.714"/>
	</g>
	<g>
		
			<rect x="10.118" y="9.571" transform="matrix(0.9004 0.435 -0.435 0.9004 5.3206 -3.4417)" style="fill:#060E9F;" width="0.12" height="0.662"/>
	</g>
	<g>
		<rect x="13.56" y="8.482" style="fill:#060E9F;" width="0.12" height="0.646"/>
	</g>
	<g>
		<rect x="15.49" y="8.723" style="fill:#060E9F;" width="0.12" height="0.691"/>
	</g>
	<g>
		<g>
			<circle style="fill:#C3002F;" cx="18.228" cy="6.03" r="0.409"/>
		</g>
		<g>
			<circle style="fill:#C3002F;" cx="13.646" cy="8.482" r="0.431"/>
		</g>
		<g>
			<circle style="fill:#C3002F;" cx="14.912" cy="7.116" r="0.41"/>
		</g>
	</g>
	<g>
		<g>
			<circle style="fill:#EA8697;" cx="10.366" cy="9.604" r="0.409"/>
		</g>
		<g>
			<circle style="fill:#EA8697;" cx="17.697" cy="7.751" r="0.41"/>
		</g>
	</g>
	<g>
		<circle style="fill:#FFDD00;" cx="19.434" cy="7.714" r="0.41"/>
	</g>
	<g>
		<circle style="fill:#FFDD00;" cx="11.66" cy="6.615" r="0.41"/>
	</g>
	<g>
		<circle style="fill:#FFDD00;" cx="15.549" cy="8.738" r="0.41"/>
	</g>
</g>
<g>
	<g>
		<path style="fill:#FFFFFF;" d="M40.617,5.547c-0.37-1.87-1.869-2.813-3.701-2.813c-3.145,0-4.477,2.59-4.477,5.347
			c0,3.016,1.332,5.532,4.497,5.532c2.312,0,3.645-1.629,3.811-3.812h1.758c-0.332,3.294-2.387,5.293-5.717,5.293
			c-4.108,0-6.105-3.035-6.105-6.883c0-3.831,2.183-6.958,6.254-6.958c2.756,0,5.033,1.48,5.439,4.293H40.617z"/>
		<path style="fill:#FFFFFF;" d="M43.966,1.568h1.574v5.051h0.036c0.519-1.147,1.87-1.628,3.016-1.628
			c2.516,0,3.294,1.443,3.294,3.497v6.291h-1.574V8.303c0-1.166-0.739-1.924-1.942-1.924c-1.906,0-2.831,1.276-2.831,2.997v5.403
			h-1.574V1.568z"/>
		<path style="fill:#FFFFFF;" d="M61.655,11.745c-0.426,2.109-1.943,3.256-4.09,3.256c-3.052,0-4.496-2.11-4.588-5.033
			c0-2.868,1.887-4.978,4.496-4.978c3.385,0,4.422,3.164,4.33,5.477h-7.161c-0.056,1.666,0.888,3.146,2.978,3.146
			c1.297,0,2.203-0.629,2.48-1.869H61.655z M60.138,9.08c-0.074-1.499-1.202-2.701-2.756-2.701c-1.647,0-2.628,1.24-2.739,2.701
			H60.138z"/>
		<path style="fill:#FFFFFF;" d="M69.758,8.284c-0.242-1.203-1.072-1.906-2.368-1.906c-2.276,0-2.979,1.795-2.979,3.737
			c0,1.758,0.795,3.497,2.792,3.497c1.518,0,2.425-0.889,2.628-2.332h1.612c-0.352,2.332-1.815,3.719-4.221,3.719
			c-2.921,0-4.476-2.036-4.476-4.885c0-2.868,1.481-5.125,4.515-5.125c2.166,0,3.904,1.018,4.126,3.293H69.758z"/>
		<path style="fill:#FFFFFF;" d="M72.737,1.568h1.573v7.826l4.367-4.181h2.109l-3.793,3.478l4.069,6.087h-1.997L75.79,9.783
			l-1.48,1.369v3.626h-1.573V1.568z"/>
		<path style="fill:#FFFFFF;" d="M86.725,1.568h5.79c2.629,0,4.053,1.462,4.053,3.904s-1.424,3.922-4.053,3.904h-4.034v5.403h-1.757
			V1.568z M88.482,7.896h3.442c1.981,0.018,2.886-0.851,2.886-2.424c0-1.572-0.905-2.424-2.886-2.424h-3.442V7.896z"/>
		<path style="fill:#FFFFFF;" d="M101.767,4.991c3.034,0,4.644,2.202,4.644,5.014c0,2.793-1.61,4.996-4.644,4.996
			s-4.645-2.203-4.645-4.996C97.123,7.193,98.733,4.991,101.767,4.991z M101.767,13.613c1.648,0,2.98-1.295,2.98-3.608
			c0-2.332-1.332-3.626-2.98-3.626c-1.647,0-2.978,1.295-2.978,3.626C98.79,12.318,100.121,13.613,101.767,13.613z"/>
		<path style="fill:#FFFFFF;" d="M109.519,3.493h-1.572V1.568h1.572V3.493z M107.947,5.213h1.572v9.566h-1.572V5.213z"/>
		<path style="fill:#FFFFFF;" d="M111.5,5.213h1.481V6.73h0.036c0.666-1.183,1.74-1.739,3.109-1.739
			c2.516,0,3.294,1.443,3.294,3.497v6.291h-1.572V8.303c0-1.166-0.742-1.924-1.945-1.924c-1.905,0-2.831,1.276-2.831,2.997v5.403
			H111.5V5.213z"/>
		<path style="fill:#FFFFFF;" d="M123.508,5.213h1.905v1.388h-1.905v5.939c0,0.721,0.202,0.851,1.183,0.851h0.721v1.388h-1.204
			c-1.627,0-2.275-0.333-2.275-2.091V6.601h-1.627V5.213h1.627V2.345h1.574V5.213z"/>
	</g>
	<g>
		<path style="fill:#FFFFFF;" d="M33.752,19.273c-0.066-0.598-0.463-0.855-1.037-0.855c-0.468,0-0.936,0.17-0.936,0.715
			c0,0.514,0.668,0.59,1.34,0.741c0.668,0.154,1.335,0.388,1.335,1.208c0,0.891-0.871,1.247-1.634,1.247
			c-0.937,0-1.727-0.456-1.727-1.475h0.527c0,0.702,0.586,1.006,1.219,1.006c0.503,0,1.059-0.157,1.059-0.761
			c0-0.574-0.667-0.673-1.335-0.819c-0.667-0.145-1.341-0.34-1.341-1.107c0-0.849,0.755-1.222,1.517-1.222
			c0.855,0,1.504,0.404,1.54,1.324H33.752z"/>
		<path style="fill:#FFFFFF;" d="M37.09,17.949c1.328,0,2.001,1.054,2.001,2.189c0,1.137-0.673,2.19-2.001,2.19
			c-1.33,0-2.003-1.053-2.003-2.19C35.086,19.004,35.76,17.949,37.09,17.949z M37.09,21.859c1.018,0,1.446-0.877,1.446-1.721
			c0-0.844-0.427-1.721-1.446-1.721c-1.019,0-1.447,0.877-1.447,1.721C35.643,20.982,36.07,21.859,37.09,21.859z"/>
		<path style="fill:#FFFFFF;" d="M39.958,18.047h2.747v0.471h-2.19v1.327h1.921v0.468h-1.921v1.915h-0.556V18.047z"/>
		<path style="fill:#FFFFFF;" d="M44.531,18.518h-1.394v-0.471h3.343v0.471h-1.393v3.71h-0.556V18.518z"/>
		<path style="fill:#FFFFFF;" d="M51.131,22.228h-0.581l-0.954-3.512h-0.011l-0.966,3.512h-0.58l-1.071-4.181h0.568l0.82,3.479
			h0.011l0.937-3.479h0.603l0.925,3.479h0.012l0.849-3.479h0.556L51.131,22.228z"/>
		<path style="fill:#FFFFFF;" d="M53.777,18.047h0.615l1.634,4.181h-0.615l-0.456-1.259h-1.769l-0.469,1.259h-0.572L53.777,18.047z
			 M53.361,20.501h1.417l-0.698-1.95H54.07L53.361,20.501z"/>
		<path style="fill:#FFFFFF;" d="M56.646,18.047h1.968c0.784,0,1.27,0.427,1.27,1.096c0,0.504-0.222,0.918-0.725,1.06v0.012
			c0.486,0.094,0.585,0.451,0.626,0.86c0.035,0.41,0.012,0.867,0.246,1.153h-0.62c-0.159-0.168-0.072-0.621-0.153-1.03
			c-0.059-0.409-0.158-0.755-0.696-0.755h-1.358v1.785h-0.557V18.047z M58.362,19.973c0.521,0,0.966-0.134,0.966-0.743
			c0-0.409-0.223-0.712-0.743-0.712h-1.382v1.456H58.362z"/>
		<path style="fill:#FFFFFF;" d="M60.868,18.047h2.887v0.471h-2.331v1.327h2.171v0.468h-2.171v1.448h2.349v0.467h-2.905V18.047z"/>
		<path style="fill:#FFFFFF;" d="M67.443,18.518h-1.394v-0.471h3.344v0.471H68v3.71h-0.557V18.518z"/>
		<path style="fill:#FFFFFF;" d="M70.067,18.047h2.886v0.471h-2.331v1.327h2.174v0.468h-2.174v1.448h2.349v0.467h-2.904V18.047z"/>
		<path style="fill:#FFFFFF;" d="M76.795,19.307c-0.117-0.592-0.593-0.89-1.171-0.89c-0.995,0-1.418,0.819-1.418,1.691
			c0,0.954,0.422,1.751,1.422,1.751c0.733,0,1.154-0.514,1.206-1.206h0.557c-0.106,1.043-0.756,1.676-1.81,1.676
			c-1.3,0-1.932-0.961-1.932-2.179c0-1.211,0.692-2.201,1.978-2.201c0.875,0,1.594,0.468,1.722,1.358H76.795z"/>
		<path style="fill:#FFFFFF;" d="M78.293,18.047h0.556v1.798h2.202v-1.798h0.557v4.181h-0.557v-1.915h-2.202v1.915h-0.556V18.047z"
			/>
		<path style="fill:#FFFFFF;" d="M82.726,18.047h0.593l2.201,3.392h0.01v-3.392h0.529v4.181h-0.61l-2.183-3.355h-0.013v3.355h-0.527
			V18.047z"/>
		<path style="fill:#FFFFFF;" d="M88.938,17.949c1.33,0,2.004,1.054,2.004,2.189c0,1.137-0.674,2.19-2.004,2.19
			c-1.327,0-2.001-1.053-2.001-2.19C86.936,19.004,87.611,17.949,88.938,17.949z M88.938,21.859c1.018,0,1.447-0.877,1.447-1.721
			c0-0.844-0.428-1.721-1.447-1.721c-1.019,0-1.446,0.877-1.446,1.721C87.492,20.982,87.919,21.859,88.938,21.859z"/>
		<path style="fill:#FFFFFF;" d="M91.779,18.047h0.554v3.714h2.215v0.467h-2.769V18.047z"/>
		<path style="fill:#FFFFFF;" d="M96.918,17.949c1.328,0,2.003,1.054,2.003,2.189c0,1.137-0.674,2.19-2.003,2.19
			c-1.329,0-2.003-1.053-2.003-2.19C94.916,19.004,95.59,17.949,96.918,17.949z M96.918,21.859c1.019,0,1.447-0.877,1.447-1.721
			c0-0.844-0.428-1.721-1.447-1.721c-1.02,0-1.447,0.877-1.447,1.721C95.472,20.982,95.899,21.859,96.918,21.859z"/>
		<path style="fill:#FFFFFF;" d="M102.936,21.707c-0.32,0.44-0.849,0.621-1.34,0.621c-1.248,0-1.99-1.02-1.99-2.109
			c0-1.215,0.668-2.27,1.99-2.27c0.914,0,1.641,0.409,1.798,1.387h-0.556c-0.112-0.633-0.621-0.918-1.242-0.918
			c-1.011,0-1.433,0.877-1.433,1.775c0,0.871,0.501,1.667,1.433,1.667c0.861,0,1.377-0.602,1.34-1.363h-1.334v-0.468h1.833v2.201
			h-0.351L102.936,21.707z"/>
		<path style="fill:#FFFFFF;" d="M104.49,18.047h0.556v4.181h-0.556V18.047z"/>
		<path style="fill:#FFFFFF;" d="M106.194,18.047h2.886v0.471h-2.33v1.327h2.172v0.468h-2.172v1.448h2.347v0.467h-2.903V18.047z"/>
		<path style="fill:#FFFFFF;" d="M112.4,19.273c-0.064-0.598-0.463-0.855-1.037-0.855c-0.468,0-0.936,0.17-0.936,0.715
			c0,0.514,0.666,0.59,1.34,0.741c0.667,0.154,1.335,0.388,1.335,1.208c0,0.891-0.872,1.247-1.633,1.247
			c-0.936,0-1.726-0.456-1.726-1.475h0.526c0,0.702,0.585,1.006,1.218,1.006c0.501,0,1.06-0.157,1.06-0.761
			c0-0.574-0.669-0.673-1.335-0.819c-0.669-0.145-1.34-0.34-1.34-1.107c0-0.849,0.754-1.222,1.515-1.222
			c0.856,0,1.506,0.404,1.541,1.324H112.4z"/>
		<path style="fill:#FFFFFF;" d="M115.731,18.047h0.556v3.714h2.213v0.467h-2.769V18.047z"/>
		<path style="fill:#FFFFFF;" d="M119.644,18.518h-1.394v-0.471h3.344v0.471h-1.394v3.71h-0.556V18.518z"/>
		<path style="fill:#FFFFFF;" d="M122.266,18.047h1.435c1.288,0,2.008,0.646,2.008,1.991c0,1.401-0.615,2.19-2.008,2.19h-1.435
			V18.047z M122.823,21.761h0.923c0.383,0,1.407-0.107,1.407-1.646c0-0.995-0.369-1.598-1.394-1.598h-0.936V21.761z"/>
		<path style="fill:#FFFFFF;" d="M126.159,22.228h0.651v-0.649h-0.651V22.228z"/>
	</g>
	<g>
		<path style="fill:#FFFFFF;" d="M125.609,2.202c0.576,0,1.06,0.455,1.06,1.05c0,0.606-0.484,1.061-1.06,1.061
			c-0.579,0-1.062-0.455-1.062-1.061C124.547,2.656,125.03,2.202,125.609,2.202z M125.609,4.158c0.489,0,0.867-0.39,0.867-0.906
			c0-0.505-0.378-0.894-0.867-0.894c-0.494,0-0.872,0.389-0.872,0.894C124.737,3.768,125.115,4.158,125.609,4.158z M125.197,2.639
			h0.477c0.293,0,0.431,0.116,0.431,0.353c0,0.223-0.142,0.316-0.324,0.336l0.352,0.544h-0.206l-0.334-0.53h-0.203v0.53h-0.193
			V2.639z M125.39,3.186h0.199c0.17,0,0.324-0.008,0.324-0.202c0-0.163-0.141-0.189-0.269-0.189h-0.255V3.186z"/>
	</g>
</g>
</svg>
