<?xml version="1.0" encoding="utf-8"?>
<!-- Generator: Adobe Illustrator 19.1.0, SVG Export Plug-In . SVG Version: 6.00 Build 0)  -->
<svg version="1.1" id="Layer_1" xmlns="http://www.w3.org/2000/svg" xmlns:xlink="http://www.w3.org/1999/xlink" x="0px" y="0px"
	 viewBox="-99 101 800 800" style="enable-background:new -99 101 800 800;" xml:space="preserve">
<style type="text/css">
	.st0{display:none;fill:#333333;enable-background:new    ;}
	.st1{font-family:'OpenSans-Extrabold';}
	.st2{font-size:138.8019px;}
	.st3{enable-background:new    ;}
	.st4{fill:#333333;}
	.st5{display:none;enable-background:new    ;}
	.st6{display:inline;fill:#333333;}
	.st7{display:none;opacity:0.6;}
	.st8{display:inline;fill:#BF0000;}
	.st9{display:inline;fill:#FFFFFF;}
	.st10{display:none;}
	.st11{display:inline;}
	.st12{fill:#FFFFFF;}
	.st13{fill:#DDDDDC;}
	.st14{fill:#666666;}
	.st15{display:inline;fill:#AAAAAA;}
	.st16{fill:#999999;}
</style>
<text transform="matrix(0.9757 0 0 1 -68.52 865.2798)" class="st0 st1 st2">APLICACIÓ</text>
<g id="equips" class="st3">
	<path class="st4" d="M121,865.3H63.6v-99.1H121v21.5H89.8v15.6h29v21.5h-29v18.7H121V865.3z"/>
	<path class="st4" d="M228.4,815.6c0,22.5-7,37.6-20.9,45.4l23.6,27.9h-32.5l-17.1-22l-0.1-0.1v-0.1l-0.1-0.1
		c-15.2,0-26.8-4.4-34.9-13.1c-8.1-8.7-12.1-21.4-12.1-38.1c0-16.5,4-29.1,12.1-37.8c8-8.7,19.7-13,35.1-13c15.4,0,27,4.3,35,12.9
		C224.5,786.2,228.4,798.9,228.4,815.6z M161.9,815.6c0,19.2,6.5,28.7,19.5,28.7c6.6,0,11.5-2.3,14.7-7c3.2-4.7,4.8-11.9,4.8-21.8
		c0-9.9-1.6-17.2-4.9-21.9c-3.2-4.7-8.1-7.1-14.5-7.1C168.4,786.6,161.9,796.3,161.9,815.6z"/>
	<path class="st4" d="M328.1,766.2v59.6c0,13-3.6,23-10.7,30.1c-7.2,7.1-17.5,10.7-31,10.7c-13.2,0-23.3-3.5-30.4-10.4
		s-10.6-16.9-10.6-29.8v-60.3h26.3v58.2c0,7,1.3,12.1,3.8,15.2c2.6,3.2,6.3,4.7,11.3,4.7c5.3,0,9.2-1.6,11.6-4.7
		c2.4-3.1,3.6-8.3,3.6-15.4v-58H328.1z"/>
	<path class="st4" d="M348.4,865.3v-99.1h26.3v99.1H348.4z"/>
	<path class="st4" d="M465.7,797.7c0,11.1-3.2,19.6-9.6,25.7c-6.4,6-15.4,9-27.1,9h-7.3v32.9h-26.1v-99.1H429
		c12.2,0,21.4,2.7,27.5,8.2C462.6,779.9,465.7,787.6,465.7,797.7z M421.6,810.6h4.8c3.9,0,7-1.1,9.4-3.4c2.3-2.3,3.5-5.4,3.5-9.4
		c0-6.7-3.6-10-10.8-10h-6.7V810.6z"/>
	<path class="st4" d="M544.3,835.2c0,6.1-1.5,11.6-4.6,16.4c-3,4.8-7.4,8.5-13.2,11.1c-5.7,2.6-12.5,4-20.2,4
		c-6.4,0-11.8-0.5-16.2-1.4c-4.4-0.9-8.9-2.5-13.6-4.8v-23.9c5,2.6,10.2,4.7,15.5,6.1c5.4,1.5,10.3,2.2,14.8,2.2
		c3.9,0,6.7-0.7,8.5-2.1c1.8-1.4,2.7-3.2,2.7-5.3c0-1.4-0.4-2.5-1.1-3.6s-1.9-2-3.5-3.1c-1.6-1-5.9-3.2-12.9-6.4
		c-6.3-2.9-11-5.8-14.2-8.5c-3.2-2.8-5.5-5.9-7-9.5c-1.5-3.6-2.3-7.8-2.3-12.7c0-9.1,3.2-16.2,9.7-21.3c6.5-5.1,15.4-7.7,26.7-7.7
		c10,0,20.2,2.4,30.6,7.1l-8,20.7c-9-4.2-16.8-6.4-23.4-6.4c-3.4,0-5.9,0.6-7.4,1.8c-1.5,1.2-2.3,2.7-2.3,4.5c0,1.9,1,3.7,2.9,5.2
		c2,1.5,7.3,4.3,16,8.4c8.3,3.8,14.1,8,17.4,12.4S544.3,828.5,544.3,835.2z"/>
</g>
<g id="smartview" class="st5">
	<path class="st6" d="M-9.7,835.2c0,6.1-1.5,11.6-4.6,16.4c-3,4.8-7.4,8.5-13.2,11.1c-5.7,2.6-12.5,4-20.2,4
		c-6.4,0-11.8-0.5-16.2-1.4s-8.9-2.5-13.6-4.8v-23.9c5,2.6,10.2,4.7,15.5,6.1c5.4,1.5,10.3,2.2,14.8,2.2c3.9,0,6.7-0.7,8.5-2.1
		c1.8-1.4,2.7-3.2,2.7-5.3c0-1.4-0.4-2.5-1.1-3.6c-0.7-1-1.9-2-3.5-3.1c-1.6-1-5.9-3.2-12.9-6.4c-6.3-2.9-11-5.8-14.2-8.5
		c-3.2-2.8-5.5-5.9-7-9.5c-1.5-3.6-2.3-7.8-2.3-12.7c0-9.1,3.2-16.2,9.7-21.3s15.4-7.7,26.7-7.7c10,0,20.2,2.4,30.6,7.1l-8,20.7
		c-9-4.2-16.8-6.4-23.4-6.4c-3.4,0-5.9,0.6-7.4,1.8c-1.5,1.2-2.3,2.7-2.3,4.5c0,1.9,1,3.7,2.9,5.2c2,1.5,7.3,4.3,16,8.4
		c8.3,3.8,14.1,8,17.4,12.4C-11.4,823-9.7,828.5-9.7,835.2z"/>
	<path class="st6" d="M95.7,865.3v-41.7c0-5.2-0.7-9.1-2.1-11.7s-3.6-3.9-6.6-3.9c-4,0-6.9,1.7-8.7,5.2c-1.9,3.5-2.8,8.9-2.8,16.3
		v35.8H49.6v-41.7c0-5.2-0.7-9.1-2-11.7c-1.3-2.6-3.5-3.9-6.4-3.9c-4.1,0-7,1.9-8.9,5.6s-2.8,9.8-2.8,18.2v33.6H3.7v-76.8h19.5
		l3.2,9.5H28c2-3.5,4.9-6.2,8.6-8.1c3.8-1.9,8.1-2.8,12.9-2.8c10.8,0,18.4,3.4,22.7,10.1h2.1c2.1-3.2,5.1-5.6,8.8-7.4
		c3.8-1.8,7.9-2.7,12.5-2.7c8.9,0,15.4,2.3,19.6,7c4.2,4.7,6.3,11.7,6.3,21.2v49.9H95.7z"/>
	<path class="st6" d="M188,865.3l-5-10.2h-0.5c-3.5,4.4-7,7.5-10.6,9.1c-3.6,1.6-8.3,2.4-14,2.4c-7.1,0-12.6-2.2-16.7-6.5
		c-4.1-4.3-6.1-10.4-6.1-18.3c0-8.2,2.8-14.3,8.3-18.3s13.6-6.2,24.1-6.7l12.5-0.4v-1.1c0-6.3-3-9.5-9.1-9.5
		c-5.5,0-12.4,1.9-20.8,5.7l-7.5-17.5c8.7-4.6,19.7-6.9,33.1-6.9c9.6,0,17,2.4,22.3,7.3c5.3,4.9,7.9,11.7,7.9,20.5v50.4H188z
		 M168.8,847.9c3.1,0,5.8-1,8-3.1c2.2-2,3.3-4.7,3.3-7.9v-6l-6,0.3c-8.5,0.3-12.8,3.5-12.8,9.6C161.5,845.6,163.9,847.9,168.8,847.9
		z"/>
	<path class="st6" d="M268.7,787.1c2.2,0,4.4,0.2,6.4,0.5l1.5,0.3l-2.3,25c-2.1-0.5-5-0.8-8.8-0.8c-5.6,0-9.7,1.3-12.3,4
		c-2.6,2.6-3.8,6.5-3.8,11.4v37.8h-25.9v-76.8h19.2l4,12.3h1.3c2.2-4.1,5.2-7.4,9-9.9C260.9,788.4,264.8,787.1,268.7,787.1z"/>
	<path class="st6" d="M323.7,845.7c3.5,0,7.6-0.9,12.5-2.6v19.3c-3.5,1.5-6.8,2.6-10,3.3s-6.8,1-11.1,1c-8.7,0-14.9-2.2-18.8-6.5
		c-3.8-4.4-5.8-11.1-5.8-20.1v-31.7h-9.1v-10.8l11.5-8.3l6.7-16.1h16.9v15.4h18.4v19.9h-18.4v29.9
		C316.7,843.2,319.1,845.7,323.7,845.7z"/>
	<path class="st6" d="M405.2,766.2h29.2l-31.7,99.1H372l-31.5-99.1h29.4l13.2,50.2c2.7,11.2,4.2,18.9,4.5,23.3
		c0.3-3.2,0.9-7.1,1.9-11.9s1.7-8.5,2.4-11.2L405.2,766.2z"/>
	<path class="st6" d="M442.8,769.4c0-4,1.1-6.9,3.2-8.9c2.2-1.9,5.6-2.9,10.4-2.9s8.3,1,10.5,3c2.2,2,3.3,4.9,3.3,8.8
		c0,7.8-4.6,11.7-13.8,11.7C447.3,781,442.8,777.2,442.8,769.4z M469.3,865.3h-25.9v-76.8h25.9V865.3z"/>
	<path class="st6" d="M523.5,866.6c-12.5,0-22.2-3.4-29.1-10.2c-6.9-6.8-10.3-16.5-10.3-29c0-13,3.2-22.9,9.6-29.9
		c6.4-6.9,15.5-10.4,27.4-10.4c11.3,0,20,3,26.2,9s9.2,14.7,9.2,26.1V834h-46.2c0.2,4.3,1.7,7.7,4.6,10.1c2.9,2.4,6.8,3.7,11.8,3.7
		c4.5,0,8.7-0.4,12.5-1.3c3.8-0.9,7.9-2.4,12.4-4.5v19c-4.1,2.1-8.2,3.6-12.6,4.4C534.7,866.2,529.5,866.6,523.5,866.6z M522,805.2
		c-3,0-5.6,1-7.6,2.9c-2,2-3.3,5.1-3.6,9.3H533c-0.1-3.7-1.1-6.7-3.1-8.9C527.9,806.3,525.3,805.2,522,805.2z"/>
	<path class="st6" d="M635.5,865.3l-8.5-36.6l-2-11l-1.3-8.9h-0.4c-2.2,12.7-3.6,20.6-4.4,23.9l-7.6,32.6h-27.2l-20.4-76.8h25.5
		l6.1,29.5c1.9,10.1,3.1,18.5,3.4,25.2h0.4c0.1-4.2,1.3-12.1,3.6-23.7l6.9-31h28.6l6.3,31.4c2,10,3.3,17.8,3.8,23.3h0.4
		c0.3-3.4,0.7-7.7,1.3-12.8c0.6-5.1,1.3-9.2,2.1-12.4l6.6-29.5h24.9l-20.6,76.8H635.5z"/>
</g>
<g id="app" class="st5">
	<path class="st6" d="M1.2,865.3l-4.8-18.6h-31.4l-4.9,18.6h-28.7l31.5-99.5h34.8l31.9,99.5H1.2z M-8.9,824.8l-4.2-16.3
		c-1-3.6-2.1-8.3-3.5-14c-1.4-5.7-2.3-9.8-2.7-12.3c-0.4,2.3-1.2,6.1-2.3,11.4c-1.2,5.3-3.8,15.7-7.8,31.2H-8.9z"/>
	<path class="st6" d="M110.4,797.7c0,11.1-3.2,19.6-9.6,25.7c-6.4,6-15.4,9-27.1,9h-7.3v32.9H40.3v-99.1h33.5
		c12.2,0,21.4,2.7,27.5,8.2C107.4,779.9,110.4,787.6,110.4,797.7z M66.4,810.6h4.8c3.9,0,7-1.1,9.4-3.4c2.3-2.3,3.5-5.4,3.5-9.4
		c0-6.7-3.6-10-10.8-10h-6.7V810.6z"/>
	<path class="st6" d="M125.8,865.3v-99.1h26.1v77.5h37.2v21.6H125.8z"/>
	<path class="st6" d="M204.7,865.3v-99.1h26.3v99.1H204.7z"/>
	<path class="st6" d="M294.9,786.7c-6.2,0-11.1,2.6-14.5,7.8c-3.5,5.2-5.2,12.4-5.2,21.6c0,19.1,7.1,28.6,21.2,28.6
		c4.3,0,8.4-0.6,12.4-1.8s8-2.7,12.1-4.4v22.6c-8.1,3.7-17.2,5.5-27.4,5.5c-14.6,0-25.8-4.3-33.6-13c-7.8-8.7-11.7-21.2-11.7-37.6
		c0-10.3,1.9-19.3,5.7-27c3.8-7.8,9.2-13.7,16.3-17.9c7.1-4.2,15.4-6.3,25-6.3c10.4,0,20.4,2.3,30,7l-8,21.1
		c-3.6-1.7-7.1-3.2-10.7-4.3C302.8,787.3,299,786.7,294.9,786.7z"/>
	<path class="st6" d="M399,865.3l-4.8-18.6h-31.4l-4.9,18.6h-28.7l31.5-99.5h34.8l31.9,99.5H399z M388.8,824.8l-4.2-16.3
		c-1-3.6-2.1-8.3-3.5-14c-1.4-5.7-2.3-9.8-2.7-12.3c-0.4,2.3-1.2,6.1-2.3,11.4c-1.2,5.3-3.8,15.7-7.8,31.2H388.8z"/>
	<path class="st6" d="M481.1,786.7c-6.2,0-11.1,2.6-14.5,7.8c-3.5,5.2-5.2,12.4-5.2,21.6c0,19.1,7.1,28.6,21.2,28.6
		c4.3,0,8.4-0.6,12.4-1.8s8-2.7,12.1-4.4v22.6c-8.1,3.7-17.2,5.5-27.4,5.5c-14.6,0-25.8-4.3-33.6-13c-7.8-8.7-11.7-21.2-11.7-37.6
		c0-10.3,1.9-19.3,5.7-27c3.8-7.8,9.2-13.7,16.3-17.9c7.1-4.2,15.4-6.3,25-6.3c10.4,0,20.4,2.3,30,7l-8,21.1
		c-3.6-1.7-7.1-3.2-10.7-4.3C489,787.3,485.2,786.7,481.1,786.7z"/>
	<path class="st6" d="M525.9,865.3v-99.1h26.3v99.1H525.9z"/>
	<path class="st6" d="M663.5,815.6c0,16.7-4,29.3-12,38c-8,8.7-19.7,13-35,13c-15.2,0-26.8-4.4-34.9-13.1
		c-8.1-8.7-12.1-21.4-12.1-38.1c0-16.5,4-29.1,12.1-37.8c8-8.7,19.7-13,35.1-13c15.4,0,27,4.3,35,12.9
		C659.5,786.2,663.5,798.9,663.5,815.6z M597,815.6c0,19.2,6.5,28.7,19.5,28.7c6.6,0,11.5-2.3,14.7-7c3.2-4.7,4.8-11.9,4.8-21.8
		c0-9.9-1.6-17.2-4.9-21.9c-3.2-4.7-8.1-7.1-14.5-7.1C603.5,786.6,597,796.3,597,815.6z M601.2,758.3v-2
		c6.8-7.5,11.1-12.3,12.9-14.4c1.8-2.2,3.3-4.1,4.5-5.8h28.3v1.4c-3.5,2.9-8.4,6.6-14.5,11c-6.2,4.5-10.8,7.7-14,9.8H601.2z"/>
</g>
<g id="url" class="st5">
	<path class="st6" d="M257.2,766.2v59.6c0,13-3.6,23-10.7,30.1c-7.2,7.1-17.5,10.7-31,10.7c-13.2,0-23.3-3.5-30.4-10.4
		c-7.1-6.9-10.6-16.9-10.6-29.8v-60.3h26.3v58.2c0,7,1.3,12.1,3.8,15.2c2.6,3.2,6.3,4.7,11.3,4.7c5.3,0,9.2-1.6,11.6-4.7
		c2.4-3.1,3.6-8.3,3.6-15.4v-58H257.2z"/>
	<path class="st6" d="M303.6,829.2v36.1h-26.1v-99.1h31.7c26.3,0,39.4,9.8,39.4,29.3c0,11.5-5.5,20.4-16.4,26.6l28.2,43.2h-29.6
		l-20.5-36.1H303.6z M303.6,809.1h4.9c9.1,0,13.7-4.1,13.7-12.4c0-6.8-4.5-10.2-13.4-10.2h-5.2V809.1z"/>
	<path class="st6" d="M369.1,865.3v-99.1h26.1v77.5h37.2v21.6H369.1z"/>
</g>
<g id="equip" class="st5">
	<path class="st6" d="M160.1,865.3h-57.4v-99.1h57.4v21.5h-31.3v15.6h29v21.5h-29v18.7h31.3V865.3z"/>
	<path class="st6" d="M267.5,815.6c0,22.5-7,37.6-20.9,45.4l23.6,27.9h-32.5l-17.1-22l-0.1-0.1v-0.1l-0.1-0.1
		c-15.2,0-26.8-4.4-34.9-13.1c-8.1-8.7-12.1-21.4-12.1-38.1c0-16.5,4-29.1,12.1-37.8c8-8.7,19.7-13,35.1-13c15.4,0,27,4.3,35,12.9
		C263.5,786.2,267.5,798.9,267.5,815.6z M201,815.6c0,19.2,6.5,28.7,19.5,28.7c6.6,0,11.5-2.3,14.7-7c3.2-4.7,4.8-11.9,4.8-21.8
		c0-9.9-1.6-17.2-4.9-21.9c-3.2-4.7-8.1-7.1-14.5-7.1C207.5,786.6,201,796.3,201,815.6z"/>
	<path class="st6" d="M367.2,766.2v59.6c0,13-3.6,23-10.7,30.1c-7.2,7.1-17.5,10.7-31,10.7c-13.2,0-23.3-3.5-30.4-10.4
		c-7.1-6.9-10.6-16.9-10.6-29.8v-60.3h26.3v58.2c0,7,1.3,12.1,3.8,15.2c2.6,3.2,6.3,4.7,11.3,4.7c5.3,0,9.2-1.6,11.6-4.7
		c2.4-3.1,3.6-8.3,3.6-15.4v-58H367.2z"/>
	<path class="st6" d="M387.5,865.3v-99.1h26.3v99.1H387.5z"/>
	<path class="st6" d="M504.8,797.7c0,11.1-3.2,19.6-9.6,25.7s-15.4,9-27.1,9h-7.3v32.9h-26.1v-99.1h33.5c12.2,0,21.4,2.7,27.5,8.2
		C501.7,779.9,504.8,787.6,504.8,797.7z M460.7,810.6h4.8c3.9,0,7-1.1,9.4-3.4s3.5-5.4,3.5-9.4c0-6.7-3.6-10-10.8-10h-6.7V810.6z"/>
</g>
<g class="st7">
	<circle class="st8" cx="301" cy="421" r="277"/>
	<circle class="st9" cx="301" cy="421" r="207.8"/>
	<circle class="st9" cx="301" cy="421" r="207.8"/>
	
		<rect x="66.5" y="386.4" transform="matrix(0.7071 -0.7071 0.7071 0.7071 -209.5311 336.1472)" class="st8" width="469.1" height="69.2"/>
</g>
<g class="st10">
	<g class="st11">
		<path class="st12" d="M618.4,404.3c-1.3-1.7-33.2-41.6-87.8-81.7c-73-53.6-152.3-81.9-229.6-81.9c-77.2,0-156.6,28.3-229.6,81.9
			c-54.6,40.1-86.4,80.1-87.8,81.7l-11.3,14.3l11.3,14.3c1.3,1.7,33.2,41.6,87.8,81.7c73,53.6,152.3,81.9,229.6,81.9
			c77.2,0,156.6-28.3,229.5-81.9c54.6-40.1,86.4-80.1,87.8-81.7l11.3-14.3L618.4,404.3z"/>
	</g>
	<g class="st11">
		<path class="st4" d="M618.4,404.3c-1.3-1.7-33.2-41.6-87.8-81.7c-73-53.6-152.3-81.9-229.6-81.9c-77.2,0-156.6,28.3-229.6,81.9
			c-54.6,40.1-86.4,80.1-87.8,81.7l-11.3,14.3l11.3,14.3c1.3,1.7,33.2,41.6,87.8,81.7c73,53.6,152.3,81.9,229.6,81.9
			c77.2,0,156.6-28.3,229.5-81.9c54.6-40.1,86.4-80.1,87.8-81.7l11.3-14.3L618.4,404.3z M301.1,543.2
			c-68.7,0-124.7-55.9-124.7-124.7c0-10.8,1.4-21.2,4-31.2l-28.5-4.8c-2.8,11.5-4.3,23.6-4.3,36c0,44.4,19,84.4,49.2,112.5
			c-38.9-14.4-72-34.6-97-52.8c-31-22.6-54.2-45.5-67.4-59.7c13.2-14.2,36.4-37.1,67.4-59.7c25-18.3,58.1-38.4,97-52.8l19.1,21.5
			c22.3-20.9,52.2-33.7,85.1-33.7c68.8,0.1,124.7,56.1,124.7,124.8S369.8,543.2,301.1,543.2z M502.3,478.3
			c-25,18.3-58.1,38.4-97,52.8c30.2-28,49.2-68.1,49.2-112.5s-18.9-84.5-49.2-112.5c38.9,14.4,72,34.6,97,52.8
			c31,22.6,54.2,45.5,67.4,59.7C556.5,432.8,533.3,455.7,502.3,478.3z"/>
		<path class="st4" d="M221.8,394.4c-2.3,7.7-3.6,15.8-3.6,24.2c0,45.8,37.1,82.9,82.9,82.9s82.9-37.1,82.9-82.9
			s-37.1-82.9-82.9-82.9c-22.3,0-42.5,8.8-57.5,23.2l40.9,46.1L221.8,394.4z"/>
	</g>
</g>
<g id="http" class="st5">
	<path class="st6" d="M126.5,456.3v-41.9c0-10.3-3-15.5-8.9-15.5c-4.2,0-7.4,1.8-9.4,5.5c-2,3.6-3,9.7-3,18.1v33.8H79.3V350.9h25.9
		v15c0,6.8-0.4,14.5-1.1,23.2h1.2c2.5-4,5.4-6.8,8.8-8.4c3.4-1.6,7.3-2.4,11.8-2.4c8.4,0,14.9,2.5,19.5,7.4c4.7,4.9,7,11.9,7,20.8
		v49.9H126.5z"/>
	<path class="st6" d="M206.7,436.7c3.5,0,7.6-0.9,12.5-2.6v19.3c-3.5,1.5-6.8,2.6-10,3.3c-3.2,0.7-6.8,1-11.1,1
		c-8.7,0-14.9-2.2-18.8-6.5s-5.8-11.1-5.8-20.1v-31.7h-9.1v-10.8l11.5-8.3l6.7-16.1h16.9v15.4h18.4v19.9h-18.4v29.9
		C199.7,434.2,202.1,436.7,206.7,436.7z"/>
	<path class="st6" d="M269,436.7c3.5,0,7.6-0.9,12.5-2.6v19.3c-3.5,1.5-6.8,2.6-10,3.3c-3.2,0.7-6.8,1-11.1,1
		c-8.7,0-14.9-2.2-18.8-6.5S236,440.1,236,431v-31.7h-9.1v-10.8l11.5-8.3l6.7-16.1H262v15.4h18.4v19.9H262v29.9
		C262,434.2,264.4,436.7,269,436.7z"/>
	<path class="st6" d="M339.6,457.7c-3.8,0-7.2-0.6-10.2-1.9c-3-1.3-6-3.6-8.9-6.9h-1.2c0.8,5.4,1.2,8.7,1.2,10v30.8h-25.9V379.5h21
		l3.6,9.8h1.2c4.8-7.4,11.4-11.1,19.9-11.1c8.3,0,14.8,3.5,19.5,10.6c4.7,7,7.1,16.7,7.1,29c0,12.4-2.5,22.1-7.4,29.2
		C354.7,454.1,348,457.7,339.6,457.7z M330.9,399c-3.8,0-6.4,1.4-8,4.2s-2.3,6.9-2.5,12.4v2.1c0,6.6,0.9,11.4,2.6,14.3
		c1.7,2.9,4.4,4.4,8.1,4.4c3.3,0,5.7-1.5,7.2-4.4c1.5-2.9,2.2-7.7,2.2-14.5c0-6.6-0.8-11.3-2.2-14.2
		C336.9,400.4,334.4,399,330.9,399z"/>
	<path class="st6" d="M378.5,391.5c0-4.1,1.2-7.3,3.6-9.6c2.4-2.3,5.9-3.4,10.4-3.4c4.4,0,7.7,1.1,10.1,3.4c2.3,2.3,3.5,5.4,3.5,9.6
		c0,4.1-1.2,7.3-3.6,9.6c-2.4,2.3-5.7,3.5-10,3.5c-4.5,0-8-1.2-10.4-3.5C379.7,398.8,378.5,395.6,378.5,391.5z M378.5,445.1
		c0-4.2,1.2-7.4,3.6-9.6c2.4-2.3,5.9-3.4,10.5-3.4c4.4,0,7.7,1.1,10.1,3.4c2.3,2.3,3.5,5.5,3.5,9.6c0,4.1-1.2,7.2-3.6,9.5
		c-2.4,2.3-5.7,3.4-10,3.4c-4.4,0-7.8-1.1-10.3-3.4S378.5,449.2,378.5,445.1z"/>
	<path class="st6" d="M471.5,355.8l-36,101.9h-22.9l36-101.9H471.5z"/>
	<path class="st6" d="M531.4,355.8l-36,101.9h-22.9l36-101.9H531.4z"/>
</g>
<g id="icons" class="st10">
	<g class="st11">
		<path class="st4" d="M396.6,244.9c0-11.8-9.7-21.4-21.7-21.4c-16.2-0.7-32.8-1-49.7-1c-0.9,0-1.8,0-2.6,0c-0.9,0-1.8,0-2.6,0
			c-16.9,0-33.5,0.3-49.7,1c-12,0-21.7,9.6-21.7,21.4c-0.7,9.4-1,18.7-1,28.1c0,9.4,0.3,18.7,1,28.1c0,11.8,9.7,21.4,21.7,21.4
			c17.1,0.8,34.5,1.1,52.3,1c17.8,0,35.3-0.3,52.3-1c12,0,21.7-9.6,21.7-21.4c0.7-9.4,1-18.7,1-28.1
			C397.7,263.6,397.4,254.3,396.6,244.9z M345.6,277.5l-41.3,23.9c-4.3,2.5-7.9,0.5-7.9-4.5l-0.1-47.7c0-5,3.5-7,7.9-4.6l41.3,23.8
			C350,270.9,350,275,345.6,277.5z"/>
	</g>
	<path id="Facebook_3_" class="st6" d="M270.4,521.8c0,3.9,0,21.5,0,21.5h-15.5v26.3h15.5v72.1h31.8v-72.1h21.4c0,0,2-12.6,3-26.4
		c-2.8,0-24.2,0-24.2,0s0-15.3,0-17.9c0-2.7,3.5-6.3,6.9-6.3c3.4,0,10.7,0,17.3,0c0-3.6,0-15.9,0-27.3c-8.9,0-19.1,0-23.6,0
		C269.6,491.5,270.4,517.8,270.4,521.8z"/>
	<g class="st11">
		<g>
			<g>
				<g>
					<path class="st4" d="M475.7,366.6h-95.6c-15,0-27.2,11.9-27.2,26.5v93.1c0,14.6,12.2,26.5,27.2,26.5h95.6
						c15,0,27.2-11.9,27.2-26.5V393C502.9,378.5,490.7,366.6,475.7,366.6z M458.1,387.1c0-3.3,2.7-5.8,6.1-5.8c6,0,11.9,0,17.9,0
						c3.1,0,5.5,2,6,4.8c0.1,0.3,0.1,0.6,0.1,0.9c0,5.7,0,11.4,0,17.1c0,2.9-2,5.2-5,5.7c-0.4,0.1-0.8,0.1-1.2,0.1c-3,0-6,0-8.9,0
						c-3,0-6,0-8.9,0c-2.7,0-5.6-1.8-6-5c0-0.3,0-0.5,0-0.8C458.1,398.4,458.1,392.8,458.1,387.1z M427.9,409.9
						c16.6,0,30.1,12.8,30.1,28.6c0,15.8-13.5,28.6-30.1,28.6c-16.7,0-30.1-12.8-30.1-28.6C397.8,423,411,409.9,427.9,409.9z
						 M488.2,427.9c0,17,0,33.9,0,50.9c0,3.8,0,7.5,0,11.3c0,2.8-1.9,5.1-4.8,5.6c-0.6,0.1-1.1,0.1-1.7,0.1c-17.3,0-34.6,0-51.9,0
						c-18.5,0-37.1,0-55.6,0c-0.8,0-1.6-0.1-2.4-0.3c-2.3-0.7-4-2.7-4.2-5c0-0.3,0-0.6,0-0.9c0-20.6,0-41.2,0-61.8
						c0-0.2,0-0.5,0-0.8c4.6,0,9.1,0,13.6,0c-3.1,11.9-1.6,23.2,4.7,33.9c4.5,7.6,10.8,13.5,18.8,17.7c7.9,4.2,16.5,6.1,25.5,5.6
						c15.1-0.8,27.3-7.1,36.5-18.5c8.8-11.7,11.4-24.6,7.9-38.6c4.5,0,9,0,13.6,0C488.2,427.4,488.2,427.6,488.2,427.9z"/>
				</g>
			</g>
		</g>
	</g>
	<g class="st11">
		<path class="st4" d="M238.2,349.1c-5.5,2.5-11.4,4.1-17.7,4.8c6.3-3.8,11.2-9.8,13.5-17c-5.9,3.5-12.5,6.1-19.5,7.5
			c-5.6-6-13.6-9.7-22.5-9.7c-17,0-30.8,13.8-30.8,30.8c0,2.4,0.3,4.8,0.8,7c-25.6-1.3-48.3-13.5-63.4-32.2
			c-2.6,4.5-4.2,9.8-4.2,15.5c0,10.7,5.4,20.1,13.7,25.6c-5-0.2-9.8-1.5-13.9-3.9c0,0.1,0,0.3,0,0.4c0,14.9,10.6,27.3,24.7,30.2
			c-2.6,0.7-5.3,1.1-8.1,1.1c-2,0-3.9-0.2-5.8-0.6c3.9,12.2,15.3,21.1,28.8,21.4c-10.5,8.2-23.8,13.2-38.2,13.2
			c-2.5,0-4.9-0.1-7.3-0.4c13.6,8.7,29.8,13.8,47.2,13.8c56.6,0,87.6-46.9,87.6-87.6c0-1.3,0-2.7-0.1-4
			C228.9,360.8,234.1,355.3,238.2,349.1z"/>
	</g>
</g>
<g class="st10">
	<g class="st11">
		<g>
			<path class="st13" d="M260.9,527.8c0,0,0,0.8,1.2,1.5l78.1-0.1c0.8-0.7,1-1.5,1-1.5L260.9,527.8z"/>
		</g>
		<path class="st14" d="M330.8,520c-1.7-2.5-3.1-16.4-3.5-26.9h-52.8c-0.4,10.6-1.8,24.4-3.5,26.9c-2.2,3.4-11.6,6.5-10.1,8
			c0.3,0.6,21,0.2,40.4,0.2c20.3,0,39.2,0.4,39.6-0.2C342.4,526.5,333.1,523.4,330.8,520z"/>
	</g>
	<path class="st6" d="M424.6,493.1H177.4c-4.3,0-7.8-3.5-7.8-7.8V320.5c0-4.3,3.5-7.8,7.8-7.8h247.3c4.3,0,7.8,3.5,7.8,7.8v164.8
		C432.5,489.6,429,493.1,424.6,493.1z"/>
	<path class="st15" d="M169.5,469.8v16.6c0,4,3.2,7.2,7.2,7.2h248.6c4,0,7.2-3.2,7.2-7.2v-16.6H169.5z"/>
</g>
<path class="st16" d="M527.8,592.8L434,545.9c-12.1-6.1-19.8-18.4-19.8-32v-36.8c2.6-3,5.7-6.8,8.9-11.4
	c12.8-18,22.4-37.9,29.1-58.7c12-3.7,20.9-14.8,20.9-28v-39.3c0-8.6-3.8-16.4-9.8-21.8v-56.7c0,0,11.6-88.3-107.9-88.3
	c-119.6,0-107.9,88.3-107.9,88.3v56.7c-6,5.4-9.8,13.1-9.8,21.8v39.3c0,10.3,5.4,19.4,13.6,24.7c9.8,42.7,35.5,73.4,35.5,73.4v35.9
	c0,13.1-7.1,25.1-18.6,31.4l-87.5,47.8c-25.3,13.8-41,40.3-41,69.1v31.8h431.8v-29.9C571.3,633.4,554.4,606.1,527.8,592.8z"/>
<path class="st4" d="M180.5,592.2l58.3-31.8c-0.3-0.3,0-0.4,0.6-0.4l28.6-15.6c11.5-6.3,18.6-18.3,18.6-31.4v-35.9
	c0,0-10.4-12.5-20.5-32.6l0,0c0,0,0,0,0,0c-1.3-2.6-2.6-5.4-3.9-8.3c-0.2-0.4-0.4-0.8-0.5-1.2c-1.3-3-2.6-6-3.8-9.3
	c-0.1-0.2-0.1-0.4-0.2-0.6c-1.1-2.8-2.1-5.8-3-8.8c-0.3-0.8-0.5-1.6-0.8-2.5c-1-3.3-1.9-6.7-2.7-10.2c-8.1-5.2-13.6-14.3-13.6-24.7
	v-39.3c0-8.6,3.8-16.4,9.8-21.8v-55.4c-13.9-10.8-35.4-20.9-68.7-20.9c-93.8,0-98.1,78.5-98.1,78.5v49c-5.2,4.7-9.8,11.3-9.8,18.8
	v33.9c0,8.9,4.7,16.8,11.7,21.3c8.5,36.9,36.9,63.4,36.9,63.4v31c0,11.3-6.2,21.7-16.1,27.1L37.6,606
	c-21.8,11.9-35.4,34.8-35.4,59.7v27.4h137.4v-31.8C139.5,632.5,155.3,606,180.5,592.2z"/>
</svg>
