<svg xmlns="http://www.w3.org/2000/svg" xmlns:xlink="http://www.w3.org/1999/xlink" preserveAspectRatio="xMidYMid" width="24" height="24" viewBox="0 0 24 24">
  <defs>
    <style>
      .cls-1 {
        fill: #263143;
        fill-rule: evenodd;
      }
    </style>
  </defs>
  <path d="M15.068,20.014 L2.933,20.014 C1.317,20.014 0.007,18.819 0.007,17.345 L0.007,10.672 C0.007,9.198 1.317,8.003 2.933,8.003 L3.000,8.003 L3.000,6.020 C3.000,6.014 2.998,6.009 2.998,6.003 C2.998,2.688 5.685,-0.000 9.000,-0.000 C12.315,-0.000 15.002,2.688 15.002,6.003 C15.002,6.008 15.000,6.013 15.000,6.019 L15.000,8.003 L15.068,8.003 C16.684,8.003 17.993,9.198 17.993,10.672 L17.993,17.345 C17.993,18.819 16.684,20.014 15.068,20.014 ZM9.000,2.989 C7.341,2.989 5.997,4.333 5.997,5.991 C5.997,5.994 5.998,5.997 5.998,6.000 L6.000,6.000 L6.000,6.022 L6.000,8.000 L6.783,8.000 C6.784,8.001 6.784,8.002 6.785,8.003 L11.215,8.003 C11.216,8.002 11.216,8.001 11.217,8.000 L12.000,8.000 L12.000,6.021 L12.000,6.000 L12.002,6.000 C12.002,5.997 12.003,5.994 12.003,5.991 C12.003,4.333 10.658,2.989 9.000,2.989 Z" transform="translate(3 2)" class="cls-1"/>
</svg>
