<svg xmlns="http://www.w3.org/2000/svg" xmlns:xlink="http://www.w3.org/1999/xlink" preserveAspectRatio="xMidYMid" width="24" height="24" viewBox="0 0 24 24">
  <defs>
    <style>
      .cls-1 {
        fill: #263143;
        fill-rule: evenodd;
      }
    </style>
  </defs>
  <path d="M16.174,13.042 C16.116,13.042 16.064,13.024 16.014,13.001 C15.674,14.762 14.997,16.259 14.026,17.253 L14.306,18.776 C14.418,18.775 14.520,18.773 14.636,18.773 C17.077,18.773 22.001,21.644 22.001,21.644 L21.988,23.988 L0.026,23.988 L0.014,21.644 C0.014,21.644 4.430,19.219 7.437,18.932 L7.806,16.927 C6.876,15.771 6.275,14.091 6.051,12.146 C5.935,12.688 5.735,13.042 5.428,13.042 C4.359,13.042 4.248,11.993 4.248,10.698 C4.248,9.404 4.144,8.354 5.106,8.354 C5.415,8.354 5.723,8.713 5.930,9.261 C5.831,5.796 5.490,3.020 9.076,2.337 C10.439,1.273 12.021,0.433 12.890,0.011 C12.497,0.769 12.116,1.493 11.712,2.199 C16.058,2.439 16.310,5.006 16.283,8.412 C16.353,8.376 16.424,8.354 16.496,8.354 C17.458,8.354 17.354,9.404 17.354,10.698 C17.354,11.993 17.243,13.042 16.174,13.042 Z" transform="translate(1)" class="cls-1"/>
</svg>
